{"glyphs":{"0":{"ha":735,"x_min":74,"x_max":661,"o":"m 661 732 l 661 190 q 614 46 660 97 q 475 -7 568 -5 l 258 -7 q 119 49 169 -6 q 74 182 75 97 l 74 724 q 95 838 75 800 q 168 909 121 886 q 283 933 214 933 l 468 933 q 618 871 570 932 q 661 732 660 821 m 428 810 l 324 810 q 237 782 260 810 q 221 742 223 766 q 220 697 220 738 l 220 229 q 236 142 221 163 q 316 116 254 117 l 425 116 q 474 121 457 116 q 501 141 491 127 q 515 186 515 159 q 516 225 516 191 l 516 693 q 505 777 516 754 q 428 810 486 810 z "},"1":{"ha":461,"x_min":46,"x_max":415,"o":"m 415 0 l 112 0 l 112 123 l 189 123 l 189 761 l 46 689 l 46 805 l 338 957 l 338 123 l 415 123 l 415 0 z "},"2":{"ha":705,"x_min":74,"x_max":631,"o":"m 631 240 l 631 0 l 74 0 l 74 319 l 486 575 l 486 697 q 483 760 486 749 q 459 799 477 787 q 409 810 442 810 l 307 810 q 256 804 269 810 q 220 727 220 785 l 220 631 l 74 631 l 74 749 q 122 878 74 826 q 267 933 174 932 l 450 933 q 587 881 538 932 q 631 752 631 837 l 631 509 l 220 254 l 220 123 l 486 123 l 486 240 l 631 240 z "},"3":{"ha":713,"x_min":65,"x_max":644,"o":"m 65 245 l 214 245 l 214 197 q 219 151 214 161 q 296 116 239 116 l 395 116 q 467 133 446 116 q 488 167 484 146 q 490 201 490 178 l 490 321 q 411 401 493 404 l 227 401 l 227 524 l 469 803 l 223 803 l 223 711 l 75 711 l 75 926 l 644 926 l 644 813 l 404 524 l 471 524 q 595 471 547 524 q 637 339 637 423 l 637 184 q 624 100 637 134 q 580 39 611 67 q 519 4 550 14 q 437 -7 485 -7 l 254 -7 q 111 51 162 -6 q 65 172 65 101 l 65 245 z "},"4":{"ha":703,"x_min":37,"x_max":666,"o":"m 565 264 l 565 0 l 419 0 l 419 264 l 37 264 l 37 408 l 406 926 l 565 926 l 565 389 l 666 389 l 666 264 l 565 264 m 419 389 l 419 727 l 178 389 l 419 389 z "},"5":{"ha":697,"x_min":74,"x_max":633,"o":"m 74 283 l 223 283 l 223 219 q 236 142 223 164 q 300 116 251 117 l 393 116 q 466 137 448 117 q 481 176 479 151 q 483 216 483 191 l 483 384 q 454 448 483 431 q 385 460 433 460 l 89 460 l 89 926 l 583 926 l 583 803 l 236 803 l 236 584 l 441 584 q 585 532 535 583 q 633 391 631 485 l 633 183 q 581 45 632 96 q 445 -7 528 -7 l 262 -7 q 122 49 172 -6 q 74 176 74 100 l 74 283 z "},"6":{"ha":704,"x_min":74,"x_max":635,"o":"m 220 521 l 452 521 q 581 477 532 520 q 635 357 635 429 l 635 173 q 581 42 634 93 q 450 -7 528 -7 l 262 -7 q 172 9 208 -7 q 111 58 136 24 q 79 137 84 96 q 74 207 74 165 l 74 743 q 115 872 75 824 q 261 933 166 932 l 442 933 q 579 878 526 933 q 625 756 625 830 l 625 680 l 477 680 l 477 711 q 465 781 477 762 q 389 810 445 810 l 313 810 q 237 786 256 810 q 220 721 220 765 l 220 521 m 220 397 l 220 206 q 296 116 216 115 l 398 116 q 486 207 486 113 l 486 304 q 469 374 486 353 q 399 397 449 396 l 220 397 z "},"7":{"ha":656,"x_min":46,"x_max":618,"o":"m 618 811 l 262 -54 l 105 -54 l 466 803 l 193 803 l 193 686 l 46 686 l 46 926 l 618 926 l 618 811 z "},"8":{"ha":707,"x_min":74,"x_max":633,"o":"m 553 469 q 598 436 583 452 q 633 341 632 403 l 633 175 q 576 39 632 91 q 447 -7 526 -6 l 260 -7 q 117 51 163 -5 q 74 190 75 102 l 74 338 q 107 437 75 405 q 153 469 121 452 q 104 503 120 486 q 74 605 75 535 l 74 747 q 121 879 75 827 q 178 921 151 911 q 265 933 208 933 l 448 933 q 588 879 536 932 q 625 818 616 850 q 633 751 633 791 l 633 605 q 614 519 633 551 q 553 469 596 488 m 398 409 l 302 409 q 233 380 252 408 q 221 313 222 361 l 221 213 q 229 152 221 166 q 299 116 249 116 l 394 116 q 484 209 488 112 l 484 323 q 398 409 486 410 m 409 810 l 303 810 q 256 805 267 810 q 221 738 221 788 l 221 616 q 303 532 217 530 l 393 532 q 444 538 433 532 q 475 565 466 546 q 484 618 484 583 l 484 738 q 467 789 484 771 q 440 808 454 804 q 409 810 431 810 z "},"9":{"ha":715,"x_min":69,"x_max":642,"o":"m 69 252 l 216 252 l 216 216 q 231 142 216 161 q 305 116 249 116 l 394 116 q 454 123 441 116 q 487 152 478 133 q 495 210 495 170 l 495 409 l 267 409 q 134 457 183 410 q 82 586 82 507 l 82 750 q 134 880 82 830 q 267 930 187 930 l 461 930 q 602 868 552 930 q 635 799 629 835 q 642 713 642 767 l 642 188 q 589 43 640 94 q 449 -7 540 -5 l 263 -7 q 181 5 214 -7 q 121 44 149 17 q 69 177 69 98 l 69 252 m 495 533 l 495 724 q 484 785 495 768 q 421 810 465 810 l 319 810 q 253 793 272 810 q 230 722 231 772 l 230 629 q 245 557 231 580 q 309 533 262 534 l 495 533 z "}," ":{"ha":416,"x_min":0,"x_max":0,"o":""},"!":{"ha":335,"x_min":83,"x_max":252,"o":"m 169 168 q 230 140 205 168 q 252 83 252 116 q 224 21 252 46 q 168 -1 199 -1 q 105 27 130 -1 q 83 84 83 51 q 111 146 83 120 q 169 168 135 168 m 218 228 l 110 228 l 110 926 l 218 926 l 218 228 z "},"\"":{"ha":380,"x_min":74,"x_max":305,"o":"m 153 532 l 74 532 l 74 926 l 153 926 l 153 532 m 305 532 l 227 532 l 227 926 l 305 926 l 305 532 z "},"#":{"ha":732,"x_min":56,"x_max":676,"o":"m 170 274 l 56 274 l 56 367 l 180 367 l 203 560 l 83 560 l 83 653 l 214 653 l 240 880 l 345 880 l 319 653 l 458 653 l 484 880 l 589 880 l 563 653 l 676 653 l 676 560 l 553 560 l 530 367 l 648 367 l 648 274 l 519 274 l 494 46 l 387 46 l 414 274 l 275 274 l 250 46 l 143 46 l 170 274 m 308 560 l 286 367 l 425 367 l 447 560 l 308 560 z "},"$":{"ha":661,"x_min":54,"x_max":609,"o":"m 59 0 l 59 262 l 199 262 l 199 123 l 292 123 l 292 397 l 241 397 q 110 444 160 398 q 54 579 55 493 l 54 746 q 102 875 55 827 q 238 926 151 925 l 292 926 l 292 1010 l 375 1010 l 375 926 l 605 926 l 605 669 l 466 669 l 466 803 l 375 803 l 375 536 l 425 536 q 503 525 471 536 q 560 487 534 513 q 598 427 589 458 q 609 342 609 393 l 609 172 q 549 42 609 92 q 427 0 498 0 l 375 0 l 375 -87 l 292 -87 l 292 0 l 59 0 m 375 123 l 399 123 q 470 226 473 123 l 470 290 q 466 346 470 327 q 450 378 461 365 q 397 397 432 397 l 375 397 l 375 123 m 292 536 l 292 803 l 267 803 q 210 780 227 803 q 193 699 193 756 l 193 643 q 214 553 194 575 q 268 536 231 536 l 292 536 z "},"%":{"ha":1076,"x_min":46,"x_max":1029,"o":"m 429 820 l 429 553 q 399 462 429 494 q 313 429 368 429 l 162 429 q 78 459 108 430 q 46 544 47 490 l 46 829 q 77 907 47 880 q 162 938 109 938 l 308 938 q 429 820 428 936 m 313 837 l 162 837 l 162 528 l 313 528 l 313 837 m 218 0 l 140 0 l 858 926 l 937 926 l 218 0 m 1029 394 l 1029 119 q 1019 55 1029 73 q 978 13 1003 26 q 913 0 954 0 l 764 0 q 677 30 707 1 q 649 111 650 58 l 649 394 q 680 474 650 444 q 756 505 710 505 l 913 505 q 998 479 967 505 q 1024 439 1019 460 q 1029 394 1029 424 m 913 409 l 764 409 l 764 94 l 913 94 l 913 409 z "},"&":{"ha":896,"x_min":46,"x_max":850,"o":"m 850 101 l 753 5 l 564 189 l 410 39 q 320 -7 363 -7 q 222 41 271 -7 l 91 172 q 46 263 46 216 q 85 349 46 309 l 244 509 l 134 621 l 134 800 q 171 891 134 856 q 217 918 194 912 q 280 926 241 926 l 431 926 q 524 892 489 925 q 560 802 559 859 l 560 633 l 441 509 l 569 386 l 659 473 l 753 378 l 665 288 l 850 101 m 470 284 l 342 409 l 199 266 l 325 140 l 470 284 m 349 607 l 425 688 l 425 814 l 271 814 l 271 682 l 349 607 z "},"'":{"ha":227,"x_min":74,"x_max":153,"o":"m 153 532 l 74 532 l 74 926 l 153 926 l 153 532 z "},"(":{"ha":325,"x_min":74,"x_max":279,"o":"m 279 1055 l 279 963 q 204 888 230 925 q 155 677 157 823 l 155 251 q 207 36 157 102 q 279 -35 233 1 l 279 -126 q 170 -45 212 -89 q 97 78 121 9 q 74 243 74 147 l 74 685 q 115 892 75 812 q 279 1055 165 992 z "},")":{"ha":325,"x_min":46,"x_max":251,"o":"m 46 -126 l 46 -35 q 121 40 95 3 q 170 251 168 104 l 170 677 q 118 892 168 826 q 46 963 93 926 l 46 1055 q 155 973 113 1017 q 228 850 204 919 q 251 685 251 781 l 251 243 q 210 36 250 117 q 46 -126 159 -64 z "},"*":{"ha":483,"x_min":46,"x_max":437,"o":"m 281 521 l 207 521 l 207 661 l 81 590 l 47 657 l 167 725 l 46 796 l 86 859 l 207 785 l 207 926 l 281 926 l 281 788 l 401 856 l 436 791 l 318 722 l 437 652 l 397 590 l 281 660 l 281 521 z "},"+":{"ha":574,"x_min":56,"x_max":519,"o":"m 347 403 l 347 231 l 227 231 l 227 403 l 56 403 l 56 523 l 227 523 l 227 694 l 347 694 l 347 523 l 519 523 l 519 403 l 347 403 z "},",":{"ha":321,"x_min":46,"x_max":275,"o":"m 275 143 l 132 -241 l 46 -241 l 188 143 l 275 143 z "},"-":{"ha":264,"x_min":0,"x_max":264,"o":"m 264 288 l 0 288 l 0 363 l 264 363 l 264 288 z "},".":{"ha":258,"x_min":46,"x_max":212,"o":"m 131 163 q 191 136 166 163 q 212 81 212 113 q 184 18 212 43 q 130 -3 161 -3 q 68 25 92 -3 q 46 81 46 49 q 74 142 46 117 q 131 163 97 163 z "},"/":{"ha":541,"x_min":5,"x_max":537,"o":"m 449 977 l 537 977 l 93 -51 l 5 -51 l 449 977 z "},":":{"ha":258,"x_min":46,"x_max":212,"o":"m 131 534 q 191 506 166 534 q 212 451 212 483 q 184 389 212 414 q 130 368 161 368 q 68 395 92 368 q 46 451 46 419 q 74 512 46 487 q 131 534 97 534 m 131 163 q 191 136 166 163 q 212 81 212 113 q 184 18 212 43 q 130 -3 161 -3 q 68 25 92 -3 q 46 81 46 49 q 74 142 46 117 q 131 163 97 163 z "},";":{"ha":378,"x_min":46,"x_max":333,"o":"m 275 143 l 132 -241 l 46 -241 l 188 143 l 275 143 m 252 408 q 312 380 287 408 q 333 326 333 357 q 306 263 333 288 q 250 242 282 242 q 188 269 213 242 q 167 326 167 293 q 195 387 167 362 q 252 408 218 408 z "},"<":{"ha":694,"x_min":46,"x_max":648,"o":"m 648 830 l 648 677 l 209 467 l 648 255 l 648 103 l 46 401 l 46 532 l 648 830 z "},"=":{"ha":574,"x_min":56,"x_max":519,"o":"m 519 282 l 56 282 l 56 402 l 519 402 l 519 282 m 56 644 l 519 644 l 519 524 l 56 524 l 56 644 z "},">":{"ha":694,"x_min":47,"x_max":648,"o":"m 47 103 l 47 256 l 486 467 l 47 678 l 47 830 l 648 532 l 648 401 l 47 103 z "},"?":{"ha":518,"x_min":46,"x_max":472,"o":"m 198 166 q 260 138 234 166 q 281 81 281 114 q 254 18 281 43 q 197 -4 229 -4 q 133 24 159 -4 q 111 82 111 48 q 140 144 111 119 q 198 166 163 166 m 240 226 l 133 226 l 133 522 l 364 522 l 364 828 l 149 828 l 149 699 l 46 699 l 46 842 q 68 903 47 882 q 134 926 90 925 l 376 926 q 448 902 423 926 q 472 834 472 879 l 472 516 q 447 446 472 471 q 376 421 422 421 l 240 421 l 240 226 z "},"@":{"ha":732,"x_min":50,"x_max":684,"o":"m 585 184 l 682 184 q 652 65 684 115 q 593 10 627 27 q 506 -7 558 -7 l 227 -7 q 150 5 180 -7 q 94 43 119 17 q 50 177 50 92 l 50 732 q 97 878 50 828 q 238 933 149 932 l 502 933 q 644 872 596 933 q 682 745 682 826 l 682 404 q 631 279 682 330 q 581 244 610 258 q 527 230 551 230 l 313 230 q 209 347 208 231 l 209 579 q 235 660 209 631 q 309 688 262 688 l 515 688 l 515 325 l 527 325 q 585 421 588 334 l 585 739 q 496 850 587 849 l 240 850 q 146 739 143 848 l 146 188 q 154 123 146 138 q 228 77 172 77 l 502 77 q 559 93 543 77 q 585 184 586 120 m 411 324 l 411 594 l 315 594 l 315 324 l 411 324 z "},"A":{"ha":800,"x_min":23,"x_max":768,"o":"m 768 0 l 560 0 l 503 294 l 292 294 l 233 0 l 23 0 l 23 123 l 99 123 l 282 926 l 513 926 l 694 123 l 768 123 l 768 0 m 477 417 l 399 832 l 317 417 l 477 417 z "},"B":{"ha":756,"x_min":46,"x_max":686,"o":"m 46 0 l 46 123 l 120 123 l 120 803 l 46 803 l 46 926 l 488 926 q 587 907 552 925 q 686 752 686 854 l 686 648 q 581 488 686 534 q 661 426 636 467 q 686 311 686 384 l 686 209 q 663 90 685 127 q 592 20 634 40 q 476 0 551 0 l 46 0 m 268 123 l 432 123 q 513 140 489 123 q 541 215 541 161 l 541 326 q 533 385 541 369 q 484 425 519 416 q 430 428 472 428 l 268 428 l 268 123 m 268 550 l 446 550 q 498 556 484 550 q 531 587 522 567 q 541 646 541 607 l 541 711 q 516 784 541 762 q 479 801 501 798 q 437 803 464 803 l 268 803 l 268 550 z "},"C":{"ha":686,"x_min":56,"x_max":607,"o":"m 607 0 l 234 0 q 99 59 150 1 q 56 189 56 111 l 56 738 q 102 870 56 817 q 245 926 149 924 l 595 926 l 595 637 l 454 637 l 454 803 l 302 803 q 225 786 246 802 q 204 722 204 768 l 204 208 q 219 144 205 164 q 245 126 230 130 q 286 123 256 123 l 466 123 l 466 290 l 607 290 l 607 0 z "},"D":{"ha":758,"x_min":46,"x_max":688,"o":"m 46 0 l 46 123 l 125 123 l 125 803 l 46 803 l 46 926 l 508 926 q 646 863 595 926 q 688 733 688 810 l 688 189 q 635 48 688 100 q 495 0 588 1 l 46 0 m 270 123 l 450 123 q 498 128 486 123 q 536 170 527 140 q 540 223 540 184 l 540 699 q 455 803 545 804 l 270 803 l 270 123 z "},"E":{"ha":706,"x_min":33,"x_max":656,"o":"m 656 0 l 33 0 l 33 123 l 109 123 l 109 803 l 33 803 l 33 926 l 647 926 l 647 643 l 508 643 l 508 803 l 258 803 l 258 536 l 532 536 l 532 410 l 258 410 l 258 123 l 515 123 l 515 294 l 656 294 l 656 0 z "},"F":{"ha":669,"x_min":46,"x_max":624,"o":"m 345 0 l 46 0 l 46 123 l 122 123 l 122 803 l 46 803 l 46 926 l 624 926 l 624 642 l 486 642 l 486 803 l 270 803 l 270 537 l 543 537 l 543 410 l 270 410 l 270 123 l 345 123 l 345 0 z "},"G":{"ha":730,"x_min":68,"x_max":650,"o":"m 650 0 l 262 0 q 112 64 163 1 q 68 205 69 115 l 68 734 q 122 873 68 819 q 256 926 174 925 l 638 926 l 638 639 l 500 639 l 500 803 l 318 803 q 262 796 277 803 q 228 767 238 787 q 218 711 218 747 l 218 225 q 235 147 218 170 q 296 123 252 123 l 506 123 l 506 399 l 349 399 l 349 529 l 650 529 l 650 0 z "},"H":{"ha":806,"x_min":46,"x_max":759,"o":"m 759 0 l 533 0 l 533 404 l 273 404 l 273 0 l 46 0 l 46 123 l 125 123 l 125 803 l 46 803 l 46 926 l 273 926 l 273 529 l 533 529 l 533 926 l 759 926 l 759 803 l 681 803 l 681 123 l 759 123 l 759 0 z "},"I":{"ha":389,"x_min":46,"x_max":343,"o":"m 343 0 l 46 0 l 46 123 l 121 123 l 121 803 l 46 803 l 46 926 l 343 926 l 343 803 l 269 803 l 269 123 l 343 123 l 343 0 z "},"J":{"ha":488,"x_min":22,"x_max":457,"o":"m 22 0 l 22 123 l 147 123 q 197 130 184 123 q 232 212 232 148 l 232 803 l 154 803 l 154 926 l 457 926 l 457 803 l 380 803 l 380 186 q 329 50 379 100 q 194 0 279 1 l 22 0 z "},"K":{"ha":747,"x_min":28,"x_max":715,"o":"m 715 0 l 496 0 l 496 310 q 488 378 496 364 q 423 399 475 399 l 250 399 l 250 0 l 28 0 l 28 123 l 104 123 l 104 803 l 28 803 l 28 926 l 250 926 l 250 511 l 496 926 l 680 926 l 680 803 l 584 803 l 405 521 l 496 521 q 609 471 570 520 q 639 366 638 434 l 639 123 l 715 123 l 715 0 z "},"L":{"ha":625,"x_min":35,"x_max":589,"o":"m 589 0 l 35 0 l 35 123 l 113 123 l 113 803 l 35 803 l 35 926 l 337 926 l 337 803 l 259 803 l 259 123 l 446 123 l 446 311 l 589 311 l 589 0 z "},"M":{"ha":991,"x_min":27,"x_max":956,"o":"m 956 0 l 738 0 l 738 696 l 538 258 l 436 258 l 243 681 l 243 0 l 27 0 l 27 123 l 109 123 l 109 803 l 27 803 l 27 926 l 262 926 l 488 425 l 711 926 l 956 926 l 956 803 l 878 803 l 878 123 l 956 123 l 956 0 z "},"N":{"ha":830,"x_min":45,"x_max":817,"o":"m 740 0 l 600 0 l 261 667 l 261 0 l 45 0 l 45 123 l 122 123 l 122 803 l 45 803 l 45 926 l 283 926 l 600 307 l 600 926 l 817 926 l 817 795 l 740 795 l 740 0 z "},"O":{"ha":736,"x_min":74,"x_max":663,"o":"m 663 745 l 663 168 q 616 45 663 96 q 486 -7 570 -6 l 251 -7 q 119 44 163 -5 q 74 177 75 95 l 74 732 q 86 819 74 785 q 125 881 98 853 q 262 933 177 932 l 482 933 q 621 871 570 933 q 663 745 663 821 m 428 810 l 313 810 q 240 787 261 810 q 222 715 222 765 l 222 214 q 239 136 222 156 q 292 116 255 116 l 433 116 q 484 125 470 116 q 509 156 502 137 q 516 210 516 174 l 516 715 q 494 789 515 769 q 428 810 472 810 z "},"P":{"ha":710,"x_min":46,"x_max":663,"o":"m 267 397 l 267 123 l 345 123 l 345 0 l 46 0 l 46 123 l 122 123 l 122 803 l 46 803 l 46 926 l 471 926 q 616 873 568 924 q 663 746 663 826 l 663 589 q 601 441 662 494 q 471 397 547 397 l 267 397 m 267 522 l 410 522 q 491 538 469 523 q 518 614 517 557 l 518 704 q 510 765 518 750 q 483 794 500 786 q 433 803 465 803 l 267 803 l 267 522 z "},"Q":{"ha":736,"x_min":74,"x_max":662,"o":"m 434 -125 l 298 -125 l 298 -7 q 178 6 219 -7 q 96 79 124 24 q 74 170 74 119 l 74 739 q 119 876 75 825 q 252 933 171 933 l 476 933 q 561 916 522 933 q 625 867 601 898 q 662 741 661 821 l 662 170 q 651 97 662 126 q 614 42 640 68 q 486 -7 564 -6 l 434 -7 l 434 -125 m 429 810 l 313 810 q 243 790 263 810 q 222 719 223 771 l 222 219 q 226 165 222 176 q 251 127 233 138 q 307 116 269 116 l 434 116 q 515 211 522 113 l 515 724 q 429 810 519 812 z "},"R":{"ha":779,"x_min":46,"x_max":755,"o":"m 755 0 l 530 0 l 530 312 q 511 378 530 359 q 440 400 490 399 l 271 400 l 271 0 l 46 0 l 46 123 l 121 123 l 121 803 l 46 803 l 46 926 l 473 926 q 666 724 664 923 l 666 640 q 631 508 665 551 q 573 465 612 484 q 636 439 610 458 q 669 401 661 420 q 679 345 679 380 l 679 123 l 755 123 l 755 0 m 271 525 l 423 525 q 490 538 469 525 q 519 606 518 555 l 519 698 q 498 781 519 758 q 429 803 478 802 l 271 803 l 271 525 z "},"S":{"ha":686,"x_min":69,"x_max":635,"o":"m 69 0 l 69 264 l 210 264 l 210 123 l 401 123 q 467 144 448 123 q 485 214 485 164 l 485 298 q 481 357 485 345 q 437 395 472 388 q 378 397 428 397 l 268 397 q 123 448 172 399 q 69 594 70 500 l 69 734 q 122 876 69 819 q 185 916 153 907 q 272 926 216 926 l 616 926 l 616 670 l 473 670 l 473 803 l 306 803 q 252 795 265 803 q 225 767 233 785 q 218 713 218 748 l 218 631 q 224 575 218 588 q 253 547 234 555 q 306 538 272 538 l 453 538 q 587 484 536 538 q 628 415 620 449 q 635 330 635 389 l 635 182 q 574 42 635 94 q 503 6 538 13 q 415 0 476 0 l 69 0 z "},"T":{"ha":756,"x_min":30,"x_max":718,"o":"m 524 0 l 221 0 l 221 123 l 302 123 l 302 803 l 170 803 l 170 669 l 30 669 l 30 926 l 718 926 l 718 669 l 581 669 l 581 803 l 449 803 l 449 123 l 524 123 l 524 0 z "},"U":{"ha":773,"x_min":28,"x_max":745,"o":"m 672 803 l 672 218 q 652 96 671 135 q 578 18 627 45 q 479 -7 534 -7 l 294 -7 q 146 52 197 -6 q 103 197 104 99 l 103 803 l 28 803 l 28 926 l 255 926 l 255 220 q 269 141 255 162 q 350 116 288 117 l 423 116 q 496 134 473 116 q 517 170 514 149 q 519 212 519 175 l 519 926 l 745 926 l 745 803 l 672 803 z "},"V":{"ha":774,"x_min":22,"x_max":746,"o":"m 493 0 l 266 0 l 99 803 l 22 803 l 22 926 l 222 926 l 383 127 l 546 926 l 746 926 l 746 803 l 665 803 l 493 0 z "},"W":{"ha":1141,"x_min":22,"x_max":1108,"o":"m 892 0 l 754 0 l 566 722 l 393 0 l 250 0 l 100 803 l 22 803 l 22 926 l 227 926 l 334 279 l 491 926 l 637 926 l 803 302 l 907 926 l 1108 926 l 1108 803 l 1032 803 l 892 0 z "},"X":{"ha":722,"x_min":25,"x_max":690,"o":"m 690 0 l 505 0 l 347 321 l 210 0 l 25 0 l 25 123 l 96 123 l 276 463 l 106 803 l 32 803 l 32 926 l 210 926 l 367 609 l 505 926 l 687 926 l 687 803 l 612 803 l 436 474 l 612 123 l 690 123 l 690 0 z "},"Y":{"ha":770,"x_min":31,"x_max":743,"o":"m 541 0 l 243 0 l 243 123 l 319 123 l 319 414 l 103 803 l 31 803 l 31 926 l 203 926 l 391 543 l 576 926 l 743 926 l 743 803 l 673 803 l 467 414 l 467 123 l 541 123 l 541 0 z "},"Z":{"ha":679,"x_min":30,"x_max":637,"o":"m 637 0 l 30 0 l 30 123 l 456 803 l 170 803 l 170 643 l 30 643 l 30 926 l 625 926 l 625 808 l 196 123 l 495 123 l 495 288 l 637 288 l 637 0 z "},"[":{"ha":315,"x_min":74,"x_max":269,"o":"m 269 1038 l 269 964 l 155 964 l 155 -38 l 269 -38 l 269 -112 l 162 -112 q 97 -91 119 -112 q 74 -28 74 -69 l 74 955 q 96 1015 75 994 q 162 1038 117 1038 l 269 1038 z "},"\\":{"ha":541,"x_min":5,"x_max":537,"o":"m 449 -51 l 5 977 l 93 977 l 537 -51 l 449 -51 z "},"]":{"ha":315,"x_min":46,"x_max":241,"o":"m 46 -112 l 46 -38 l 161 -38 l 161 964 l 46 964 l 46 1038 l 153 1038 q 219 1017 196 1038 q 241 955 241 996 l 241 -28 q 220 -89 241 -68 q 153 -112 198 -111 l 46 -112 z "},"^":{"ha":694,"x_min":33,"x_max":661,"o":"m 172 505 l 33 505 l 261 930 l 433 930 l 661 505 l 522 505 l 347 825 l 172 505 z "},"_":{"ha":694,"x_min":0,"x_max":694,"o":"m 0 -75 l 694 -75 l 694 -195 l 0 -195 l 0 -75 z "},"`":{"ha":694,"x_min":222,"x_max":403,"o":"m 311 704 l 222 852 l 315 852 l 403 704 l 311 704 z "},"a":{"ha":623,"x_min":51,"x_max":595,"o":"m 595 0 l 182 0 q 126 13 155 0 q 81 47 98 26 q 51 137 51 83 l 51 205 q 104 316 52 279 q 152 337 128 333 q 217 342 174 341 l 387 344 l 387 495 l 191 495 l 191 406 l 59 406 l 59 479 q 94 572 59 535 q 141 603 117 595 q 203 611 165 611 l 382 611 q 490 569 452 610 q 523 469 522 532 l 523 117 l 595 117 l 595 0 m 388 235 l 192 235 l 192 110 l 388 110 l 388 235 z "},"b":{"ha":614,"x_min":18,"x_max":558,"o":"m 90 0 l 90 810 l 18 810 l 18 926 l 229 926 l 229 606 l 428 606 q 526 566 490 606 q 558 471 557 531 l 558 134 q 520 34 557 71 q 425 0 486 1 l 90 0 m 418 116 l 418 490 l 229 490 l 229 116 l 418 116 z "},"c":{"ha":553,"x_min":56,"x_max":503,"o":"m 503 218 l 503 0 l 198 0 q 92 45 130 1 q 60 153 61 81 l 60 448 q 198 606 56 605 l 503 606 l 503 393 l 370 393 l 370 490 l 198 490 l 198 116 l 370 116 l 370 218 l 503 218 z "},"d":{"ha":625,"x_min":56,"x_max":599,"o":"m 599 116 l 599 0 l 187 0 q 57 152 56 2 l 57 465 q 90 569 57 532 q 183 606 123 606 l 390 606 l 390 810 l 317 810 l 317 926 l 526 926 l 526 116 l 599 116 m 390 116 l 390 490 l 195 490 l 195 116 l 390 116 z "},"e":{"ha":578,"x_min":56,"x_max":522,"o":"m 389 198 l 522 198 l 522 134 q 486 33 522 70 q 389 -5 450 -5 l 199 -5 q 94 33 132 -4 q 61 85 68 56 q 56 139 56 104 l 56 472 q 95 576 56 538 q 203 611 132 610 l 389 611 q 489 570 450 611 q 522 465 522 534 l 522 269 l 191 269 l 191 111 l 389 111 l 389 198 m 389 369 l 389 505 l 191 505 l 191 369 l 389 369 z "},"f":{"ha":368,"x_min":35,"x_max":340,"o":"m 316 116 l 316 0 l 35 0 l 35 116 l 105 116 l 105 490 l 35 490 l 35 606 l 105 606 l 105 794 q 138 885 105 848 q 233 926 176 926 l 340 926 l 340 810 l 243 810 l 243 606 l 340 606 l 340 490 l 243 490 l 243 116 l 316 116 z "},"g":{"ha":633,"x_min":56,"x_max":597,"o":"m 523 490 l 523 -109 q 484 -214 522 -178 q 433 -244 460 -237 q 372 -250 410 -250 l 193 -250 q 102 -216 134 -250 q 75 -134 75 -186 l 75 -67 l 211 -67 l 211 -134 l 387 -134 l 387 0 l 193 0 q 56 140 57 -1 l 56 471 q 97 572 56 537 q 209 606 135 606 l 597 606 l 597 490 l 523 490 m 387 116 l 387 490 l 193 490 l 193 116 l 387 116 z "},"h":{"ha":671,"x_min":37,"x_max":652,"o":"m 652 0 l 444 0 l 444 490 l 248 490 l 248 116 l 318 116 l 318 0 l 37 0 l 37 116 l 113 116 l 113 810 l 37 810 l 37 926 l 248 926 l 248 606 l 432 606 q 545 572 509 606 q 582 466 582 538 l 582 116 l 652 116 l 652 0 z "},"i":{"ha":351,"x_min":37,"x_max":323,"o":"m 323 0 l 37 0 l 37 116 l 111 116 l 111 490 l 37 490 l 37 606 l 252 606 l 252 116 l 323 116 l 323 0 m 180 851 q 233 827 211 851 q 252 777 252 806 q 228 722 252 744 q 178 703 207 703 q 123 728 146 703 q 104 778 104 749 q 129 832 104 810 q 180 851 150 851 z "},"j":{"ha":314,"x_min":37,"x_max":252,"o":"m 248 606 l 248 -106 q 231 -187 248 -161 q 181 -236 210 -221 q 107 -250 152 -250 l 37 -250 l 37 -134 l 107 -134 l 107 490 l 37 490 l 37 606 l 248 606 m 179 854 q 233 829 211 854 q 252 780 252 808 q 228 724 252 747 q 178 705 206 705 q 123 730 145 705 q 104 780 104 751 q 128 835 104 812 q 179 854 149 854 z "},"k":{"ha":671,"x_min":35,"x_max":639,"o":"m 639 0 l 473 0 l 247 264 l 247 0 l 35 0 l 35 116 l 107 116 l 107 810 l 35 810 l 35 926 l 247 926 l 247 353 l 418 606 l 586 606 l 586 490 l 500 490 l 376 323 l 562 116 l 639 116 l 639 0 z "},"l":{"ha":349,"x_min":37,"x_max":321,"o":"m 321 0 l 37 0 l 37 116 l 109 116 l 109 810 l 37 810 l 37 926 l 248 926 l 248 116 l 321 116 l 321 0 z "},"m":{"ha":994,"x_min":37,"x_max":975,"o":"m 975 0 l 768 0 l 768 490 l 578 490 l 578 116 l 650 116 l 650 0 l 438 0 l 438 490 l 248 490 l 248 116 l 323 116 l 323 0 l 37 0 l 37 116 l 113 116 l 113 490 l 37 490 l 37 606 l 768 606 q 870 569 836 606 q 905 458 905 532 l 905 116 l 975 116 l 975 0 z "},"n":{"ha":670,"x_min":37,"x_max":652,"o":"m 652 0 l 440 0 l 440 490 l 245 490 l 245 116 l 319 116 l 319 0 l 37 0 l 37 116 l 110 116 l 110 490 l 37 490 l 37 606 l 440 606 q 541 573 504 606 q 572 528 564 552 q 578 475 578 508 l 578 116 l 652 116 l 652 0 z "},"o":{"ha":585,"x_min":56,"x_max":532,"o":"m 532 485 l 532 137 q 498 36 532 73 q 399 -5 461 -5 l 201 -5 q 58 146 56 -5 l 58 478 q 90 570 58 534 q 194 611 125 610 l 397 611 q 496 576 460 610 q 532 485 532 541 m 387 111 l 387 495 l 201 495 l 201 111 l 387 111 z "},"p":{"ha":625,"x_min":28,"x_max":570,"o":"m 239 0 l 239 -250 l 98 -250 l 98 490 l 28 490 l 28 606 l 405 606 q 500 590 471 606 q 554 540 538 571 q 570 455 570 509 l 570 134 q 532 36 570 75 q 432 0 497 1 l 239 0 m 432 116 l 432 490 l 239 490 l 239 116 l 432 116 z "},"q":{"ha":617,"x_min":56,"x_max":600,"o":"m 526 490 l 526 -250 l 387 -250 l 387 0 l 181 0 q 89 39 123 1 q 57 135 58 74 l 57 452 q 212 606 56 604 l 600 606 l 600 490 l 526 490 m 387 116 l 387 490 l 195 490 l 195 116 l 387 116 z "},"r":{"ha":516,"x_min":37,"x_max":493,"o":"m 317 0 l 37 0 l 37 116 l 109 116 l 109 490 l 37 490 l 37 606 l 351 606 q 455 572 419 606 q 493 476 492 537 l 493 366 l 365 366 l 365 490 l 245 490 l 245 116 l 317 116 l 317 0 z "},"s":{"ha":582,"x_min":56,"x_max":526,"o":"m 56 -5 l 56 180 l 198 180 l 198 111 l 388 111 l 388 246 l 195 246 q 60 380 63 244 l 60 477 q 98 573 60 536 q 197 611 136 610 l 519 611 l 519 425 l 388 425 l 388 495 l 198 495 l 198 363 l 382 363 q 488 330 452 362 q 519 286 511 309 q 526 226 526 262 l 526 123 q 481 24 526 60 q 385 -5 447 -4 l 56 -5 z "},"t":{"ha":366,"x_min":23,"x_max":330,"o":"m 330 0 l 225 0 q 127 34 159 0 q 95 138 95 68 l 95 490 l 23 490 l 23 606 l 95 606 l 95 795 l 235 795 l 235 606 l 328 606 l 328 490 l 235 490 l 235 116 l 330 116 l 330 0 z "},"u":{"ha":685,"x_min":37,"x_max":657,"o":"m 657 116 l 657 0 l 272 0 q 111 179 106 -3 l 111 490 l 37 490 l 37 606 l 252 606 l 252 116 l 444 116 l 444 490 l 371 490 l 371 606 l 585 606 l 585 116 l 657 116 z "},"v":{"ha":631,"x_min":28,"x_max":603,"o":"m 215 0 l 100 490 l 28 490 l 28 606 l 215 606 l 315 117 l 416 606 l 603 606 l 603 490 l 531 490 l 416 0 l 215 0 z "},"w":{"ha":946,"x_min":28,"x_max":918,"o":"m 762 0 l 579 0 l 472 408 l 365 0 l 183 0 l 102 490 l 28 490 l 28 606 l 224 606 l 284 151 l 406 606 l 540 606 l 656 153 l 724 606 l 918 606 l 918 490 l 844 490 l 762 0 z "},"x":{"ha":605,"x_min":28,"x_max":577,"o":"m 577 0 l 414 0 l 304 191 l 191 0 l 28 0 l 28 116 l 104 116 l 226 304 l 100 490 l 31 490 l 31 606 l 191 606 l 304 414 l 414 606 l 572 606 l 572 490 l 498 490 l 382 310 l 503 116 l 577 116 l 577 0 z "},"y":{"ha":641,"x_min":23,"x_max":613,"o":"m 538 490 l 230 -250 l 92 -250 l 248 124 l 92 490 l 23 490 l 23 606 l 190 606 l 316 295 l 444 606 l 613 606 l 613 490 l 538 490 z "},"z":{"ha":562,"x_min":35,"x_max":528,"o":"m 528 193 l 528 0 l 35 0 l 35 109 l 332 490 l 172 490 l 172 416 l 39 416 l 39 606 l 505 606 l 505 503 l 201 116 l 391 116 l 391 193 l 528 193 z "},"{":{"ha":372,"x_min":46,"x_max":326,"o":"m 326 1037 l 326 963 l 316 963 q 220 929 241 962 q 205 849 207 909 l 205 623 q 184 513 205 547 q 128 463 168 488 q 188 406 172 436 q 205 304 205 371 l 205 77 q 220 -3 207 18 q 316 -37 241 -36 l 326 -37 l 326 -111 l 296 -111 q 175 -75 215 -110 q 125 77 125 -32 l 125 280 q 119 361 125 342 q 46 414 106 403 l 46 512 q 104 541 82 519 q 122 581 117 555 q 125 646 125 593 l 125 849 q 175 1001 125 959 q 296 1037 215 1036 l 326 1037 z "},"|":{"ha":694,"x_min":273,"x_max":422,"o":"m 273 926 l 422 926 l 422 -231 l 273 -231 l 273 926 z "},"}":{"ha":372,"x_min":46,"x_max":326,"o":"m 46 -111 l 46 -37 l 56 -37 q 151 -3 131 -36 q 165 77 164 18 l 165 304 q 187 413 165 379 q 243 463 202 438 q 183 520 199 490 q 165 623 165 556 l 165 849 q 151 929 164 909 q 56 963 131 962 l 46 963 l 46 1037 l 75 1037 q 196 1001 156 1036 q 246 849 247 958 l 246 646 q 252 566 247 585 q 326 512 264 524 l 326 414 q 267 386 290 408 q 249 346 254 372 q 246 280 246 333 l 246 77 q 196 -75 247 -32 q 75 -111 156 -110 l 46 -111 z "},"~":{"ha":926,"x_min":130,"x_max":798,"o":"m 208 788 l 130 851 q 327 1022 203 1022 q 486 971 377 1022 q 568 936 550 941 q 604 930 589 930 q 720 1025 668 930 l 798 962 q 707 831 760 871 q 588 793 657 793 q 537 803 566 793 q 429 850 511 811 q 319 884 357 884 q 208 788 260 884 z "},"Ä":{"ha":800,"x_min":23,"x_max":768,"o":"m 768 0 l 560 0 l 503 294 l 292 294 l 233 0 l 23 0 l 23 123 l 99 123 l 282 926 l 513 926 l 694 123 l 768 123 l 768 0 m 477 417 l 399 832 l 317 417 l 477 417 m 300 1133 q 342 1115 325 1133 q 361 1071 361 1096 q 342 1027 361 1046 q 299 1008 325 1008 q 254 1027 273 1008 q 236 1071 236 1045 q 254 1115 236 1097 q 300 1133 273 1133 m 494 1133 q 537 1115 519 1133 q 555 1071 555 1096 q 537 1027 555 1046 q 494 1008 519 1008 q 449 1027 467 1008 q 431 1071 431 1045 q 449 1115 431 1097 q 494 1133 468 1133 z "},"É":{"ha":706,"x_min":33,"x_max":656,"o":"m 656 0 l 33 0 l 33 123 l 109 123 l 109 803 l 33 803 l 33 926 l 647 926 l 647 643 l 508 643 l 508 803 l 258 803 l 258 536 l 532 536 l 532 410 l 258 410 l 258 123 l 515 123 l 515 294 l 656 294 l 656 0 m 382 1009 l 289 1009 l 378 1158 l 470 1158 l 382 1009 z "},"¥":{"ha":800,"x_min":23,"x_max":798,"o":"m 668 0 l 560 0 l 503 294 l 292 294 l 234 0 l 23 0 l 23 123 l 99 123 l 282 926 l 513 926 l 694 123 l 768 123 l 768 0 l 718 -68 l 718 -153 l 798 -153 l 798 -215 l 630 -215 q 592 -207 601 -215 q 584 -169 584 -198 l 584 -118 q 596 -75 584 -93 q 621 -47 604 -64 l 668 0 m 477 417 l 399 832 l 317 417 l 477 417 z "},"Ö":{"ha":736,"x_min":74,"x_max":663,"o":"m 663 745 l 663 168 q 616 45 663 96 q 486 -7 570 -6 l 251 -7 q 119 44 163 -5 q 74 177 75 95 l 74 732 q 86 819 74 785 q 125 881 98 853 q 262 933 177 932 l 482 933 q 621 871 570 933 q 663 745 663 821 m 428 810 l 313 810 q 240 787 261 810 q 222 715 222 765 l 222 214 q 239 136 222 156 q 292 116 255 116 l 433 116 q 484 125 470 116 q 509 156 502 137 q 516 210 516 174 l 516 715 q 494 789 515 769 q 428 810 472 810 m 272 1133 q 315 1115 297 1133 q 333 1071 333 1096 q 315 1027 333 1046 q 271 1008 297 1008 q 227 1027 245 1008 q 208 1071 208 1045 q 227 1115 208 1097 q 272 1133 245 1133 m 467 1133 q 509 1115 492 1133 q 528 1071 528 1096 q 509 1027 528 1046 q 466 1008 492 1008 q 421 1027 439 1008 q 403 1071 403 1045 q 421 1115 403 1097 q 467 1133 440 1133 z "},"Ü":{"ha":773,"x_min":28,"x_max":745,"o":"m 672 803 l 672 218 q 652 96 671 135 q 578 18 627 45 q 479 -7 534 -7 l 294 -7 q 146 52 197 -6 q 103 197 104 99 l 103 803 l 28 803 l 28 926 l 255 926 l 255 220 q 269 141 255 162 q 350 116 288 117 l 423 116 q 496 134 473 116 q 517 170 514 149 q 519 212 519 175 l 519 926 l 745 926 l 745 803 l 672 803 m 291 1133 q 334 1115 316 1133 q 352 1071 352 1096 q 334 1027 352 1046 q 290 1008 316 1008 q 245 1027 264 1008 q 227 1071 227 1045 q 245 1115 227 1097 q 291 1133 264 1133 m 485 1133 q 528 1115 510 1133 q 546 1071 546 1096 q 528 1027 546 1046 q 484 1008 510 1008 q 439 1027 458 1008 q 421 1071 421 1045 q 439 1115 421 1097 q 485 1133 458 1133 z "},"á":{"ha":623,"x_min":51,"x_max":595,"o":"m 595 0 l 182 0 q 126 13 155 0 q 81 47 98 26 q 51 137 51 83 l 51 205 q 104 316 52 279 q 152 337 128 333 q 217 342 174 341 l 387 344 l 387 495 l 191 495 l 191 406 l 59 406 l 59 479 q 94 572 59 535 q 141 603 117 595 q 203 611 165 611 l 382 611 q 490 569 452 610 q 523 469 522 532 l 523 117 l 595 117 l 595 0 m 388 235 l 192 235 l 192 110 l 388 110 l 388 235 m 349 704 l 256 704 l 345 852 l 437 852 l 349 704 z "},"¹":{"ha":623,"x_min":51,"x_max":625,"o":"m 494 0 l 182 0 q 126 13 155 0 q 81 47 98 26 q 51 137 51 83 l 51 205 q 104 316 52 279 q 152 337 128 333 q 217 342 174 341 l 387 344 l 387 495 l 191 495 l 191 406 l 59 406 l 59 479 q 94 572 59 535 q 141 603 117 595 q 203 611 165 611 l 382 611 q 490 569 452 610 q 523 469 522 532 l 523 117 l 595 117 l 595 0 l 544 -68 l 544 -153 l 625 -153 l 625 -215 l 456 -215 q 418 -207 427 -215 q 410 -169 410 -198 l 410 -118 q 422 -75 410 -93 q 448 -47 430 -64 l 494 0 m 388 235 l 192 235 l 192 110 l 388 110 l 388 235 z "},"È":{"ha":686,"x_min":56,"x_max":607,"o":"m 607 0 l 234 0 q 99 59 150 1 q 56 189 56 111 l 56 738 q 102 870 56 817 q 245 926 149 924 l 595 926 l 595 637 l 454 637 l 454 803 l 302 803 q 225 786 246 802 q 204 722 204 768 l 204 208 q 219 144 205 164 q 245 126 230 130 q 286 123 256 123 l 466 123 l 466 290 l 607 290 l 607 0 m 186 1158 l 279 1158 l 331 1083 l 385 1158 l 477 1158 l 378 1009 l 285 1009 l 186 1158 z "},"ä":{"ha":623,"x_min":51,"x_max":595,"o":"m 595 0 l 182 0 q 126 13 155 0 q 81 47 98 26 q 51 137 51 83 l 51 205 q 104 316 52 279 q 152 337 128 333 q 217 342 174 341 l 387 344 l 387 495 l 191 495 l 191 406 l 59 406 l 59 479 q 94 572 59 535 q 141 603 117 595 q 203 611 165 611 l 382 611 q 490 569 452 610 q 523 469 522 532 l 523 117 l 595 117 l 595 0 m 388 235 l 192 235 l 192 110 l 388 110 l 388 235 m 216 828 q 258 810 241 828 q 277 766 277 791 q 258 722 277 741 q 215 703 241 703 q 170 722 189 703 q 152 766 152 740 q 170 810 152 792 q 216 828 189 828 m 410 828 q 453 810 435 828 q 471 766 471 791 q 453 722 471 741 q 410 703 435 703 q 365 722 383 703 q 347 766 347 740 q 365 810 347 792 q 410 828 384 828 z "},"è":{"ha":553,"x_min":56,"x_max":503,"o":"m 503 218 l 503 0 l 198 0 q 92 45 130 1 q 60 153 61 81 l 60 448 q 198 606 56 605 l 503 606 l 503 393 l 370 393 l 370 490 l 198 490 l 198 116 l 370 116 l 370 218 l 503 218 m 150 852 l 243 852 l 295 779 l 349 852 l 441 852 l 342 704 l 249 704 l 150 852 z "},"Æ":{"ha":686,"x_min":56,"x_max":607,"o":"m 607 0 l 234 0 q 99 59 150 1 q 56 189 56 111 l 56 738 q 102 870 56 817 q 245 926 149 924 l 595 926 l 595 637 l 454 637 l 454 803 l 302 803 q 225 786 246 802 q 204 722 204 768 l 204 208 q 219 144 205 164 q 245 126 230 130 q 286 123 256 123 l 466 123 l 466 290 l 607 290 l 607 0 m 369 1009 l 276 1009 l 365 1158 l 457 1158 l 369 1009 z "},"æ":{"ha":553,"x_min":56,"x_max":503,"o":"m 503 218 l 503 0 l 198 0 q 92 45 130 1 q 60 153 61 81 l 60 448 q 198 606 56 605 l 503 606 l 503 393 l 370 393 l 370 490 l 198 490 l 198 116 l 370 116 l 370 218 l 503 218 m 333 704 l 240 704 l 329 852 l 421 852 l 333 704 z "},"é":{"ha":578,"x_min":56,"x_max":522,"o":"m 389 198 l 522 198 l 522 134 q 486 33 522 70 q 389 -5 450 -5 l 199 -5 q 94 33 132 -4 q 61 85 68 56 q 56 139 56 104 l 56 472 q 95 576 56 538 q 203 611 132 610 l 389 611 q 489 570 450 611 q 522 465 522 534 l 522 269 l 191 269 l 191 111 l 389 111 l 389 198 m 389 369 l 389 505 l 191 505 l 191 369 l 389 369 m 326 704 l 233 704 l 322 852 l 414 852 l 326 704 z "},"":{"ha":679,"x_min":30,"x_max":637,"o":"m 637 0 l 30 0 l 30 123 l 456 803 l 170 803 l 170 643 l 30 643 l 30 926 l 625 926 l 625 808 l 196 123 l 495 123 l 495 288 l 637 288 l 637 0 m 371 1009 l 278 1009 l 367 1158 l 459 1158 l 371 1009 z "},"Ÿ":{"ha":562,"x_min":35,"x_max":528,"o":"m 528 193 l 528 0 l 35 0 l 35 109 l 332 490 l 172 490 l 172 416 l 39 416 l 39 606 l 505 606 l 505 503 l 201 116 l 391 116 l 391 193 l 528 193 m 319 704 l 226 704 l 315 852 l 407 852 l 319 704 z "},"Ï":{"ha":758,"x_min":46,"x_max":688,"o":"m 46 0 l 46 123 l 125 123 l 125 803 l 46 803 l 46 926 l 508 926 q 646 863 595 926 q 688 733 688 810 l 688 189 q 635 48 688 100 q 495 0 588 1 l 46 0 m 270 123 l 450 123 q 498 128 486 123 q 536 170 527 140 q 540 223 540 184 l 540 699 q 455 803 545 804 l 270 803 l 270 123 m 222 1158 l 315 1158 l 367 1083 l 420 1158 l 513 1158 l 414 1009 l 321 1009 l 222 1158 z "},"í":{"ha":351,"x_min":37,"x_max":323,"o":"m 323 0 l 37 0 l 37 116 l 111 116 l 111 490 l 37 490 l 37 606 l 252 606 l 252 116 l 323 116 l 323 0 m 213 704 l 120 704 l 209 852 l 301 852 l 213 704 z "},"ï":{"ha":744,"x_min":56,"x_max":734,"o":"m 599 116 l 599 0 l 187 0 q 57 152 56 2 l 57 465 q 90 569 57 532 q 183 606 123 606 l 390 606 l 390 810 l 317 810 l 317 926 l 526 926 l 526 116 l 599 116 m 390 116 l 390 490 l 195 490 l 195 116 l 390 116 m 642 926 l 734 926 l 664 733 l 571 733 l 642 926 z "},"ó":{"ha":585,"x_min":56,"x_max":532,"o":"m 532 485 l 532 137 q 498 36 532 73 q 399 -5 461 -5 l 201 -5 q 58 146 56 -5 l 58 478 q 90 570 58 534 q 194 611 125 610 l 397 611 q 496 576 460 610 q 532 485 532 541 m 387 111 l 387 495 l 201 495 l 201 111 l 387 111 m 330 704 l 237 704 l 326 852 l 418 852 l 330 704 z "},"ô":{"ha":585,"x_min":56,"x_max":532,"o":"m 532 485 l 532 137 q 498 36 532 73 q 399 -5 461 -5 l 201 -5 q 58 146 56 -5 l 58 478 q 90 570 58 534 q 194 611 125 610 l 397 611 q 496 576 460 610 q 532 485 532 541 m 387 111 l 387 495 l 201 495 l 201 111 l 387 111 m 438 704 l 346 704 l 293 779 l 240 704 l 147 704 l 246 852 l 339 852 l 438 704 z "},"ö":{"ha":585,"x_min":56,"x_max":532,"o":"m 532 485 l 532 137 q 498 36 532 73 q 399 -5 461 -5 l 201 -5 q 58 146 56 -5 l 58 478 q 90 570 58 534 q 194 611 125 610 l 397 611 q 496 576 460 610 q 532 485 532 541 m 387 111 l 387 495 l 201 495 l 201 111 l 387 111 m 197 828 q 239 810 222 828 q 258 766 258 791 q 239 722 258 741 q 196 703 222 703 q 151 722 170 703 q 133 766 133 740 q 151 810 133 792 q 197 828 170 828 m 391 828 q 434 810 416 828 q 452 766 452 791 q 434 722 452 741 q 391 703 416 703 q 346 722 364 703 q 328 766 328 740 q 346 810 328 792 q 391 828 365 828 z "},"ú":{"ha":685,"x_min":37,"x_max":657,"o":"m 657 116 l 657 0 l 272 0 q 111 179 106 -3 l 111 490 l 37 490 l 37 606 l 252 606 l 252 116 l 444 116 l 444 490 l 371 490 l 371 606 l 585 606 l 585 116 l 657 116 m 380 704 l 287 704 l 376 852 l 468 852 l 380 704 z "},"Ì":{"ha":706,"x_min":33,"x_max":656,"o":"m 656 0 l 33 0 l 33 123 l 109 123 l 109 803 l 33 803 l 33 926 l 647 926 l 647 643 l 508 643 l 508 803 l 258 803 l 258 536 l 532 536 l 532 410 l 258 410 l 258 123 l 515 123 l 515 294 l 656 294 l 656 0 m 199 1158 l 292 1158 l 344 1083 l 397 1158 l 490 1158 l 391 1009 l 298 1009 l 199 1158 z "},"ì":{"ha":578,"x_min":56,"x_max":522,"o":"m 389 198 l 522 198 l 522 134 q 486 33 522 70 q 389 -5 450 -5 l 199 -5 q 94 33 132 -4 q 61 85 68 56 q 56 139 56 104 l 56 472 q 95 576 56 538 q 203 611 132 610 l 389 611 q 489 570 450 611 q 522 465 522 534 l 522 269 l 191 269 l 191 111 l 389 111 l 389 198 m 389 369 l 389 505 l 191 505 l 191 369 l 389 369 m 144 852 l 237 852 l 289 779 l 342 852 l 435 852 l 336 704 l 243 704 l 144 852 z "},"ü":{"ha":685,"x_min":37,"x_max":657,"o":"m 657 116 l 657 0 l 272 0 q 111 179 106 -3 l 111 490 l 37 490 l 37 606 l 252 606 l 252 116 l 444 116 l 444 490 l 371 490 l 371 606 l 585 606 l 585 116 l 657 116 m 247 828 q 290 810 272 828 q 308 766 308 791 q 290 722 308 741 q 246 703 272 703 q 201 722 220 703 q 183 766 183 740 q 201 810 183 792 q 247 828 220 828 m 441 828 q 484 810 467 828 q 503 766 503 791 q 484 722 503 741 q 441 703 467 703 q 396 722 414 703 q 378 766 378 740 q 396 810 378 792 q 441 828 415 828 z "},"†":{"ha":618,"x_min":46,"x_max":572,"o":"m 244 -51 l 244 593 l 46 593 l 46 718 l 244 718 l 244 926 l 373 926 l 373 718 l 572 718 l 572 593 l 373 593 l 373 -51 l 244 -51 z "},"°":{"ha":505,"x_min":46,"x_max":458,"o":"m 255 932 q 398 872 337 932 q 458 727 458 813 q 398 581 458 641 q 252 521 337 521 q 106 581 168 521 q 46 726 46 641 q 106 872 46 814 q 255 932 169 932 m 251 849 q 165 813 202 849 q 130 726 130 778 q 165 640 130 675 q 252 604 202 604 q 339 640 302 604 q 375 726 375 675 q 339 813 375 779 q 251 849 302 849 z "},"Ê":{"ha":706,"x_min":33,"x_max":685,"o":"m 656 0 l 605 -68 l 605 -153 l 685 -153 l 685 -215 l 517 -215 q 479 -207 488 -215 q 471 -169 471 -198 l 471 -118 q 484 -75 471 -93 q 509 -47 491 -65 l 555 0 l 33 0 l 33 123 l 109 123 l 109 803 l 33 803 l 33 926 l 647 926 l 647 643 l 508 643 l 508 803 l 258 803 l 258 536 l 532 536 l 532 410 l 258 410 l 258 123 l 515 123 l 515 294 l 656 294 l 656 0 z "},"§":{"ha":640,"x_min":68,"x_max":571,"o":"m 223 169 l 223 106 q 230 79 223 85 q 262 72 237 72 l 386 72 q 412 79 406 72 q 416 111 416 85 l 416 203 q 410 226 416 221 q 380 231 404 231 l 209 231 q 68 340 72 229 l 68 554 q 81 610 68 589 q 103 638 89 624 q 87 671 90 657 q 83 713 83 686 l 83 859 q 119 949 83 922 q 238 977 155 977 l 416 977 q 519 948 484 977 q 555 868 555 920 l 555 757 l 416 757 l 416 819 q 409 846 416 840 q 376 854 401 854 l 253 854 q 228 846 234 854 q 223 813 223 840 l 223 728 q 229 701 223 706 q 259 695 236 695 l 434 695 q 506 688 488 695 q 555 651 540 677 q 571 577 571 624 l 571 379 q 536 290 571 320 q 549 264 546 274 q 555 213 555 248 l 555 67 q 416 -51 556 -51 l 224 -51 q 83 58 87 -52 l 83 169 l 223 169 m 431 395 l 431 532 q 427 562 431 555 q 401 568 421 568 l 238 568 q 212 562 218 568 q 208 532 208 555 l 208 395 q 212 365 208 372 q 238 358 218 358 l 401 358 q 427 365 421 358 q 431 395 431 372 z "},"•":{"ha":926,"x_min":272,"x_max":657,"o":"m 467 663 q 600 607 544 663 q 657 471 657 551 q 601 334 657 391 q 465 278 545 278 q 330 334 386 278 q 272 471 272 391 q 329 608 272 553 q 467 663 387 663 z "},"¶":{"ha":730,"x_min":60,"x_max":686,"o":"m 284 463 l 163 463 q 90 489 117 463 q 63 560 63 515 l 63 817 q 182 926 60 928 l 686 926 l 686 838 l 621 838 l 621 37 l 686 37 l 686 -51 l 500 -51 l 500 838 l 404 838 l 404 -51 l 210 -51 l 210 37 l 284 37 l 284 463 z "},"ß":{"ha":581,"x_min":56,"x_max":525,"o":"m 193 -250 l 193 -133 l 384 -133 l 384 134 l 286 134 l 286 252 l 384 252 l 384 490 l 195 490 l 195 0 l 56 0 l 56 787 q 95 888 56 850 q 140 917 118 910 q 206 926 165 926 l 321 926 l 321 810 l 195 810 l 195 606 l 384 606 q 490 570 454 606 q 525 473 524 536 l 525 299 q 494 215 524 240 q 460 193 484 205 q 499 169 488 181 q 525 94 525 144 l 525 -106 q 480 -216 524 -178 q 370 -250 441 -250 l 193 -250 z "},"®":{"ha":741,"x_min":54,"x_max":687,"o":"m 231 933 l 511 933 q 666 846 616 933 q 687 732 686 811 l 687 194 q 642 45 687 96 q 511 -7 596 -7 l 231 -7 q 75 80 126 -7 q 54 194 55 115 l 54 732 q 100 881 54 829 q 231 933 146 933 m 153 739 l 153 186 q 159 127 153 143 q 189 89 170 100 q 245 78 208 78 l 496 78 q 553 90 536 78 q 580 124 572 102 q 588 186 588 145 l 588 739 q 582 799 588 783 q 552 837 572 826 q 496 848 533 848 l 245 848 q 188 837 205 848 q 161 803 169 824 q 153 739 153 781 m 555 185 l 418 185 l 418 374 q 366 421 420 421 l 338 421 l 338 185 l 201 185 l 201 267 l 234 267 l 234 659 l 201 659 l 201 741 l 386 741 q 512 617 511 739 l 512 568 q 499 500 512 524 q 464 466 490 484 q 492 452 476 464 q 521 393 520 430 l 521 267 l 555 267 l 555 185 m 338 504 l 355 504 q 395 511 382 504 q 410 547 410 519 l 410 602 q 399 648 410 635 q 359 659 387 659 l 338 659 l 338 504 z "},"©":{"ha":741,"x_min":54,"x_max":687,"o":"m 231 933 l 511 933 q 666 846 616 933 q 687 732 686 811 l 687 194 q 642 45 687 96 q 511 -7 596 -7 l 231 -7 q 75 80 126 -7 q 54 194 55 115 l 54 732 q 100 881 54 829 q 231 933 146 933 m 153 739 l 153 186 q 159 127 153 143 q 189 89 170 100 q 245 78 208 78 l 496 78 q 553 90 536 78 q 580 124 572 102 q 588 186 588 145 l 588 739 q 582 799 588 783 q 552 837 572 826 q 496 848 533 848 l 245 848 q 188 837 205 848 q 161 803 169 824 q 153 739 153 781 m 532 185 l 330 185 q 241 221 274 186 q 213 301 213 254 l 213 625 q 243 706 213 673 q 337 741 274 740 l 525 741 l 525 561 l 427 561 l 427 659 l 372 659 q 327 650 338 659 q 315 616 315 641 l 315 312 q 324 277 315 288 q 363 267 333 267 l 435 267 l 435 366 l 532 366 l 532 185 z "},"™":{"ha":1082,"x_min":26,"x_max":1053,"o":"m 327 399 l 138 399 l 138 476 l 186 476 l 186 848 l 119 848 l 119 773 l 26 773 l 26 926 l 442 926 l 442 773 l 351 773 l 351 848 l 283 848 l 283 476 l 327 476 l 327 399 m 1053 399 l 914 399 l 914 732 q 916 779 914 761 q 896 730 905 750 l 806 543 l 738 543 l 650 728 q 632 777 641 747 l 632 768 q 633 730 633 734 l 633 399 l 496 399 l 496 476 l 544 476 l 544 848 l 496 848 l 496 926 l 643 926 l 772 653 l 901 926 l 1053 926 l 1053 848 l 1007 848 l 1007 476 l 1053 476 l 1053 399 z "},"ê":{"ha":578,"x_min":56,"x_max":523,"o":"m 468 18 l 416 -50 l 416 -136 l 497 -136 l 497 -197 l 329 -197 q 291 -189 300 -197 q 283 -151 283 -180 l 283 -100 q 295 -58 283 -75 q 320 -30 302 -47 l 345 -5 l 199 -5 q 94 33 132 -4 q 61 85 68 56 q 56 139 56 104 l 56 472 q 95 576 56 538 q 203 611 132 610 l 389 611 q 489 570 450 611 q 522 465 522 534 l 522 269 l 191 269 l 191 111 l 389 111 l 389 198 l 522 198 l 522 134 q 468 18 523 56 m 389 369 l 389 505 l 191 505 l 191 369 l 389 369 z "},"¨":{"ha":694,"x_min":187,"x_max":507,"o":"m 251 828 q 294 810 276 828 q 312 766 312 791 q 294 722 312 741 q 250 703 276 703 q 205 722 224 703 q 187 766 187 740 q 205 810 187 792 q 251 828 224 828 m 446 828 q 488 810 471 828 q 507 766 507 791 q 488 722 507 741 q 445 703 471 703 q 400 722 418 703 q 382 766 382 740 q 400 810 382 792 q 446 828 419 828 z "},"Ð":{"ha":758,"x_min":46,"x_max":688,"o":"m 125 428 l 46 428 l 46 516 l 125 516 l 125 803 l 46 803 l 46 926 l 508 926 q 646 863 595 926 q 688 733 688 810 l 688 189 q 635 48 688 100 q 496 0 588 1 l 46 0 l 46 123 l 125 123 l 125 428 m 270 428 l 270 123 l 450 123 q 499 128 486 123 q 536 170 527 140 q 540 222 540 184 l 540 699 q 456 803 545 804 l 270 803 l 270 516 l 410 516 l 410 428 l 270 428 z "},"ð":{"ha":625,"x_min":56,"x_max":599,"o":"m 390 681 l 256 681 l 256 750 l 390 750 l 390 810 l 317 810 l 317 926 l 526 926 l 526 750 l 599 750 l 599 681 l 526 681 l 526 116 l 599 116 l 599 0 l 187 0 q 57 152 56 2 l 57 465 q 90 569 57 532 q 183 606 123 606 l 390 606 l 390 681 m 390 116 l 390 490 l 195 490 l 195 116 l 390 116 z "},"³":{"ha":326,"x_min":9,"x_max":317,"o":"m 236 532 l 236 116 l 310 116 l 310 0 l 26 0 l 26 116 l 97 116 l 97 463 l 9 405 l 9 505 l 97 564 l 97 810 l 26 810 l 26 926 l 236 926 l 236 633 l 317 686 l 317 586 l 236 532 z "},"¼":{"ha":625,"x_min":35,"x_max":589,"o":"m 589 0 l 35 0 l 35 123 l 113 123 l 113 803 l 35 803 l 35 926 l 337 926 l 337 803 l 259 803 l 259 123 l 446 123 l 446 311 l 589 311 l 589 0 m 478 926 l 570 926 l 500 733 l 407 733 l 478 926 z "},"¾":{"ha":466,"x_min":37,"x_max":457,"o":"m 321 0 l 37 0 l 37 116 l 109 116 l 109 810 l 37 810 l 37 926 l 248 926 l 248 116 l 321 116 l 321 0 m 365 926 l 457 926 l 387 733 l 294 733 l 365 926 z "},"Å":{"ha":625,"x_min":35,"x_max":589,"o":"m 589 0 l 35 0 l 35 123 l 113 123 l 113 803 l 35 803 l 35 926 l 337 926 l 337 803 l 259 803 l 259 123 l 446 123 l 446 311 l 589 311 l 589 0 m 229 1009 l 136 1009 l 225 1158 l 317 1158 l 229 1009 z "},"å":{"ha":349,"x_min":37,"x_max":321,"o":"m 321 0 l 37 0 l 37 116 l 109 116 l 109 810 l 37 810 l 37 926 l 248 926 l 248 116 l 321 116 l 321 0 m 203 1009 l 110 1009 l 199 1158 l 291 1158 l 203 1009 z "},"Ñ":{"ha":830,"x_min":45,"x_max":817,"o":"m 740 0 l 600 0 l 261 667 l 261 0 l 45 0 l 45 123 l 122 123 l 122 803 l 45 803 l 45 926 l 283 926 l 600 307 l 600 926 l 817 926 l 817 795 l 740 795 l 740 0 m 468 1009 l 375 1009 l 464 1158 l 556 1158 l 468 1009 z "},"¬":{"ha":694,"x_min":46,"x_max":648,"o":"m 498 0 l 498 258 l 46 258 l 46 393 l 648 393 l 648 0 l 498 0 z "},"ñ":{"ha":670,"x_min":37,"x_max":652,"o":"m 652 0 l 440 0 l 440 490 l 245 490 l 245 116 l 319 116 l 319 0 l 37 0 l 37 116 l 110 116 l 110 490 l 37 490 l 37 606 l 440 606 q 541 573 504 606 q 572 528 564 552 q 578 475 578 508 l 578 116 l 652 116 l 652 0 m 373 704 l 280 704 l 369 852 l 461 852 l 373 704 z "},"Ò":{"ha":830,"x_min":45,"x_max":817,"o":"m 740 0 l 600 0 l 261 667 l 261 0 l 45 0 l 45 123 l 122 123 l 122 803 l 45 803 l 45 926 l 283 926 l 600 307 l 600 926 l 817 926 l 817 795 l 740 795 l 740 0 m 285 1158 l 378 1158 l 430 1083 l 484 1158 l 576 1158 l 477 1009 l 384 1009 l 285 1158 z "},"«":{"ha":458,"x_min":46,"x_max":412,"o":"m 355 531 l 412 490 l 281 309 l 412 130 l 355 89 l 196 309 l 355 531 m 205 531 l 261 490 l 131 309 l 262 130 l 205 89 l 46 309 l 205 531 z "},"»":{"ha":458,"x_min":46,"x_max":412,"o":"m 102 85 l 47 127 l 177 307 l 46 486 l 102 527 l 262 307 l 102 85 m 252 85 l 197 127 l 328 307 l 196 486 l 252 527 l 412 307 l 252 85 z "},"…":{"ha":774,"x_min":46,"x_max":728,"o":"m 131 163 q 191 136 166 163 q 212 81 212 113 q 184 18 212 43 q 130 -3 161 -3 q 68 25 92 -3 q 46 81 46 49 q 74 142 46 117 q 131 163 97 163 m 389 163 q 448 136 424 163 q 470 81 470 112 q 443 18 470 43 q 387 -3 419 -3 q 326 25 350 -3 q 304 81 304 49 q 332 142 304 117 q 389 163 355 163 m 647 163 q 707 136 682 163 q 728 81 728 113 q 701 18 728 43 q 646 -3 677 -3 q 583 24 608 -3 q 562 81 562 48 q 590 142 562 117 q 647 163 613 163 z "},"ò":{"ha":670,"x_min":37,"x_max":652,"o":"m 652 0 l 440 0 l 440 490 l 245 490 l 245 116 l 319 116 l 319 0 l 37 0 l 37 116 l 110 116 l 110 490 l 37 490 l 37 606 l 440 606 q 541 573 504 606 q 572 528 564 552 q 578 475 578 508 l 578 116 l 652 116 l 652 0 m 190 852 l 283 852 l 335 779 l 389 852 l 481 852 l 382 704 l 289 704 l 190 852 z "},"Õ":{"ha":736,"x_min":74,"x_max":663,"o":"m 663 745 l 663 168 q 616 45 663 96 q 486 -7 570 -6 l 251 -7 q 119 44 163 -5 q 74 177 75 95 l 74 732 q 86 819 74 785 q 125 881 98 853 q 262 933 177 932 l 482 933 q 621 871 570 933 q 663 745 663 821 m 428 810 l 313 810 q 240 787 261 810 q 222 715 222 765 l 222 214 q 239 136 222 156 q 292 116 255 116 l 433 116 q 484 125 470 116 q 509 156 502 137 q 516 210 516 174 l 516 715 q 494 789 515 769 q 428 810 472 810 m 336 1009 l 243 1009 l 332 1158 l 425 1158 l 336 1009 m 475 1009 l 382 1009 l 471 1158 l 564 1158 l 475 1009 z "},"õ":{"ha":585,"x_min":56,"x_max":532,"o":"m 532 485 l 532 137 q 498 36 532 73 q 399 -5 461 -5 l 201 -5 q 58 146 56 -5 l 58 478 q 90 570 58 534 q 194 611 125 610 l 397 611 q 496 576 460 610 q 532 485 532 541 m 387 111 l 387 495 l 201 495 l 201 111 l 387 111 m 260 704 l 168 704 l 256 852 l 349 852 l 260 704 m 399 704 l 307 704 l 395 852 l 488 852 l 399 704 z "},"–":{"ha":561,"x_min":46,"x_max":515,"o":"m 515 288 l 46 288 l 46 363 l 515 363 l 515 288 z "},"—":{"ha":794,"x_min":0,"x_max":794,"o":"m 794 288 l 0 288 l 0 363 l 794 363 l 794 288 z "},"“":{"ha":446,"x_min":46,"x_max":399,"o":"m 170 926 l 255 926 l 134 597 l 46 597 l 170 926 m 311 926 l 399 926 l 275 597 l 190 597 l 311 926 z "},"”":{"ha":446,"x_min":46,"x_max":399,"o":"m 255 926 l 132 597 l 46 597 l 168 926 l 255 926 m 399 926 l 275 597 l 190 597 l 311 926 l 399 926 z "},"‘":{"ha":301,"x_min":46,"x_max":255,"o":"m 255 926 l 132 597 l 46 597 l 168 926 l 255 926 z "},"’":{"ha":308,"x_min":46,"x_max":261,"o":"m 46 588 l 172 926 l 261 926 l 138 588 l 46 588 z "},"÷":{"ha":574,"x_min":56,"x_max":519,"o":"m 288 739 q 339 718 317 739 q 361 665 361 696 q 338 612 361 634 q 288 591 317 591 q 236 612 258 591 q 214 665 214 634 q 236 718 214 696 q 288 739 258 739 m 288 333 q 340 310 318 333 q 360 260 360 290 q 338 207 360 228 q 287 186 316 186 q 235 207 257 186 q 213 259 213 229 q 233 310 213 290 q 288 333 256 333 m 519 403 l 56 403 l 56 523 l 519 523 l 519 403 z "},"À":{"ha":779,"x_min":46,"x_max":755,"o":"m 755 0 l 530 0 l 530 312 q 511 378 530 359 q 440 400 490 399 l 271 400 l 271 0 l 46 0 l 46 123 l 121 123 l 121 803 l 46 803 l 46 926 l 473 926 q 666 724 664 923 l 666 640 q 631 508 665 551 q 573 465 612 484 q 636 439 610 458 q 669 401 661 420 q 679 345 679 380 l 679 123 l 755 123 l 755 0 m 271 525 l 423 525 q 490 538 469 525 q 519 606 518 555 l 519 698 q 498 781 519 758 q 429 803 478 802 l 271 803 l 271 525 m 420 1009 l 327 1009 l 416 1158 l 508 1158 l 420 1009 z "},"à":{"ha":516,"x_min":37,"x_max":493,"o":"m 317 0 l 37 0 l 37 116 l 109 116 l 109 490 l 37 490 l 37 606 l 351 606 q 455 572 419 606 q 493 476 492 537 l 493 366 l 365 366 l 365 490 l 245 490 l 245 116 l 317 116 l 317 0 m 296 704 l 203 704 l 292 852 l 384 852 l 296 704 z "},"Ø":{"ha":779,"x_min":46,"x_max":755,"o":"m 755 0 l 530 0 l 530 312 q 511 378 530 359 q 440 400 490 399 l 271 400 l 271 0 l 46 0 l 46 123 l 121 123 l 121 803 l 46 803 l 46 926 l 473 926 q 666 724 664 923 l 666 640 q 631 508 665 551 q 573 465 612 484 q 636 439 610 458 q 669 401 661 420 q 679 345 679 380 l 679 123 l 755 123 l 755 0 m 271 525 l 423 525 q 490 538 469 525 q 519 606 518 555 l 519 698 q 498 781 519 758 q 429 803 478 802 l 271 803 l 271 525 m 237 1158 l 330 1158 l 382 1083 l 435 1158 l 528 1158 l 429 1009 l 336 1009 l 237 1158 z "},"‹":{"ha":309,"x_min":46,"x_max":262,"o":"m 205 531 l 261 490 l 131 309 l 262 130 l 205 89 l 46 309 l 205 531 z "},"›":{"ha":309,"x_min":46,"x_max":262,"o":"m 102 85 l 47 127 l 177 307 l 46 486 l 102 527 l 262 307 l 102 85 z "},"ø":{"ha":516,"x_min":37,"x_max":493,"o":"m 317 0 l 37 0 l 37 116 l 109 116 l 109 490 l 37 490 l 37 606 l 351 606 q 455 572 419 606 q 493 476 492 537 l 493 366 l 365 366 l 365 490 l 245 490 l 245 116 l 317 116 l 317 0 m 113 852 l 205 852 l 258 779 l 311 852 l 404 852 l 304 704 l 212 704 l 113 852 z "},"Š":{"ha":686,"x_min":69,"x_max":635,"o":"m 69 0 l 69 264 l 210 264 l 210 123 l 401 123 q 467 144 448 123 q 485 214 485 164 l 485 298 q 481 357 485 345 q 437 395 472 388 q 378 397 428 397 l 268 397 q 123 448 172 399 q 69 594 70 500 l 69 734 q 122 876 69 819 q 185 916 153 907 q 272 926 216 926 l 616 926 l 616 670 l 473 670 l 473 803 l 306 803 q 252 795 265 803 q 225 767 233 785 q 218 713 218 748 l 218 631 q 224 575 218 588 q 253 547 234 555 q 306 538 272 538 l 453 538 q 587 484 536 538 q 628 415 620 449 q 635 330 635 389 l 635 182 q 574 42 635 94 q 503 6 538 13 q 415 0 476 0 l 69 0 m 207 1158 l 300 1158 l 352 1083 l 406 1158 l 498 1158 l 399 1009 l 306 1009 l 207 1158 z "},"‚":{"ha":301,"x_min":46,"x_max":255,"o":"m 255 143 l 132 -186 l 46 -186 l 168 143 l 255 143 z "},"„":{"ha":446,"x_min":46,"x_max":399,"o":"m 255 143 l 132 -186 l 46 -186 l 168 143 l 255 143 m 399 143 l 275 -186 l 190 -186 l 311 143 l 399 143 z "},"š":{"ha":582,"x_min":56,"x_max":526,"o":"m 56 -5 l 56 180 l 198 180 l 198 111 l 388 111 l 388 246 l 195 246 q 60 380 63 244 l 60 477 q 98 573 60 536 q 197 611 136 610 l 519 611 l 519 425 l 388 425 l 388 495 l 198 495 l 198 363 l 382 363 q 488 330 452 362 q 519 286 511 309 q 526 226 526 262 l 526 123 q 481 24 526 60 q 385 -5 447 -4 l 56 -5 m 146 852 l 239 852 l 291 779 l 345 852 l 437 852 l 338 704 l 245 704 l 146 852 z "},"Œ":{"ha":686,"x_min":69,"x_max":635,"o":"m 69 0 l 69 264 l 210 264 l 210 123 l 401 123 q 467 144 448 123 q 485 214 485 164 l 485 298 q 481 357 485 345 q 437 395 472 388 q 378 397 428 397 l 268 397 q 123 448 172 399 q 69 594 70 500 l 69 734 q 122 876 69 819 q 185 916 153 907 q 272 926 216 926 l 616 926 l 616 670 l 473 670 l 473 803 l 306 803 q 252 795 265 803 q 225 767 233 785 q 218 713 218 748 l 218 631 q 224 575 218 588 q 253 547 234 555 q 306 538 272 538 l 453 538 q 587 484 536 538 q 628 415 620 449 q 635 330 635 389 l 635 182 q 574 42 635 94 q 503 6 538 13 q 415 0 476 0 l 69 0 m 390 1009 l 297 1009 l 386 1158 l 478 1158 l 390 1009 z "},"œ":{"ha":582,"x_min":56,"x_max":526,"o":"m 56 -5 l 56 180 l 198 180 l 198 111 l 388 111 l 388 246 l 195 246 q 60 380 63 244 l 60 477 q 98 573 60 536 q 197 611 136 610 l 519 611 l 519 425 l 388 425 l 388 495 l 198 495 l 198 363 l 382 363 q 488 330 452 362 q 519 286 511 309 q 526 226 526 262 l 526 123 q 481 24 526 60 q 385 -5 447 -4 l 56 -5 m 328 704 l 235 704 l 324 852 l 416 852 l 328 704 z "},"Á":{"ha":800,"x_min":23,"x_max":768,"o":"m 768 0 l 560 0 l 503 294 l 292 294 l 233 0 l 23 0 l 23 123 l 99 123 l 282 926 l 513 926 l 694 123 l 768 123 l 768 0 m 477 417 l 399 832 l 317 417 l 477 417 m 433 1009 l 340 1009 l 429 1158 l 522 1158 l 433 1009 z "},"":{"ha":756,"x_min":30,"x_max":718,"o":"m 524 0 l 221 0 l 221 123 l 302 123 l 302 803 l 170 803 l 170 669 l 30 669 l 30 926 l 718 926 l 718 669 l 581 669 l 581 803 l 449 803 l 449 123 l 524 123 l 524 0 m 229 1158 l 321 1158 l 374 1083 l 427 1158 l 519 1158 l 420 1009 l 328 1009 l 229 1158 z "},"":{"ha":454,"x_min":23,"x_max":446,"o":"m 330 0 l 225 0 q 127 34 159 0 q 95 138 95 68 l 95 490 l 23 490 l 23 606 l 95 606 l 95 795 l 235 795 l 235 606 l 328 606 l 328 490 l 235 490 l 235 116 l 330 116 l 330 0 m 353 926 l 446 926 l 375 733 l 282 733 l 353 926 z "},"Í":{"ha":389,"x_min":46,"x_max":343,"o":"m 343 0 l 46 0 l 46 123 l 121 123 l 121 803 l 46 803 l 46 926 l 343 926 l 343 803 l 269 803 l 269 123 l 343 123 l 343 0 m 232 1009 l 139 1009 l 228 1158 l 320 1158 l 232 1009 z "},"":{"ha":679,"x_min":30,"x_max":637,"o":"m 637 0 l 30 0 l 30 123 l 456 803 l 170 803 l 170 643 l 30 643 l 30 926 l 625 926 l 625 808 l 196 123 l 495 123 l 495 288 l 637 288 l 637 0 m 189 1158 l 281 1158 l 334 1083 l 387 1158 l 479 1158 l 380 1009 l 288 1009 l 189 1158 z "},"":{"ha":562,"x_min":35,"x_max":528,"o":"m 528 193 l 528 0 l 35 0 l 35 109 l 332 490 l 172 490 l 172 416 l 39 416 l 39 606 l 505 606 l 505 503 l 201 116 l 391 116 l 391 193 l 528 193 m 136 852 l 229 852 l 281 779 l 334 852 l 427 852 l 328 704 l 235 704 l 136 852 z "},"Ó":{"ha":736,"x_min":74,"x_max":663,"o":"m 663 745 l 663 168 q 616 45 663 96 q 486 -7 570 -6 l 251 -7 q 119 44 163 -5 q 74 177 75 95 l 74 732 q 86 819 74 785 q 125 881 98 853 q 262 933 177 932 l 482 933 q 621 871 570 933 q 663 745 663 821 m 428 810 l 313 810 q 240 787 261 810 q 222 715 222 765 l 222 214 q 239 136 222 156 q 292 116 255 116 l 433 116 q 484 125 470 116 q 509 156 502 137 q 516 210 516 174 l 516 715 q 494 789 515 769 q 428 810 472 810 m 406 1009 l 313 1009 l 401 1158 l 494 1158 l 406 1009 z "},"Ô":{"ha":736,"x_min":74,"x_max":663,"o":"m 663 745 l 663 168 q 616 45 663 96 q 486 -7 570 -6 l 251 -7 q 119 44 163 -5 q 74 177 75 95 l 74 732 q 86 819 74 785 q 125 881 98 853 q 262 933 177 932 l 482 933 q 621 871 570 933 q 663 745 663 821 m 428 810 l 313 810 q 240 787 261 810 q 222 715 222 765 l 222 214 q 239 136 222 156 q 292 116 255 116 l 433 116 q 484 125 470 116 q 509 156 502 137 q 516 210 516 174 l 516 715 q 494 789 515 769 q 428 810 472 810 m 513 1009 l 421 1009 l 368 1083 l 315 1009 l 222 1009 l 321 1158 l 414 1158 l 513 1009 z "},"Ù":{"ha":773,"x_min":28,"x_max":745,"o":"m 672 803 l 672 218 q 652 96 671 135 q 578 18 627 45 q 479 -7 534 -7 l 294 -7 q 146 52 197 -6 q 103 197 104 99 l 103 803 l 28 803 l 28 926 l 255 926 l 255 220 q 269 141 255 162 q 350 116 288 117 l 423 116 q 496 134 473 116 q 517 170 514 149 q 519 212 519 175 l 519 926 l 745 926 l 745 803 l 672 803 m 389 1187 q 468 1153 435 1187 q 502 1071 502 1118 q 468 989 502 1025 q 387 955 435 955 q 304 989 338 955 q 271 1071 271 1023 q 304 1153 271 1120 q 389 1187 339 1187 m 386 1133 q 342 1115 361 1133 q 324 1071 324 1097 q 342 1027 324 1045 q 387 1008 361 1008 q 430 1027 412 1008 q 448 1071 448 1046 q 430 1115 448 1096 q 386 1133 412 1133 z "},"Ú":{"ha":773,"x_min":28,"x_max":745,"o":"m 672 803 l 672 218 q 652 96 671 135 q 578 18 627 45 q 479 -7 534 -7 l 294 -7 q 146 52 197 -6 q 103 197 104 99 l 103 803 l 28 803 l 28 926 l 255 926 l 255 220 q 269 141 255 162 q 350 116 288 117 l 423 116 q 496 134 473 116 q 517 170 514 149 q 519 212 519 175 l 519 926 l 745 926 l 745 803 l 672 803 m 424 1009 l 331 1009 l 420 1158 l 512 1158 l 424 1009 z "},"ù":{"ha":685,"x_min":37,"x_max":657,"o":"m 657 116 l 657 0 l 272 0 q 111 179 106 -3 l 111 490 l 37 490 l 37 606 l 252 606 l 252 116 l 444 116 l 444 490 l 371 490 l 371 606 l 585 606 l 585 116 l 657 116 m 345 889 q 424 855 391 889 q 458 773 458 820 q 424 691 458 727 q 343 657 391 657 q 260 691 294 657 q 227 773 227 726 q 260 855 227 822 q 345 889 295 889 m 342 836 q 298 817 317 836 q 280 773 280 799 q 298 729 280 747 q 342 711 317 711 q 386 729 368 711 q 404 773 404 748 q 386 817 404 798 q 342 836 368 836 z "},"Û":{"ha":773,"x_min":28,"x_max":745,"o":"m 672 803 l 672 218 q 652 96 671 135 q 578 18 627 45 q 479 -7 534 -7 l 294 -7 q 146 52 197 -6 q 103 197 104 99 l 103 803 l 28 803 l 28 926 l 255 926 l 255 220 q 269 141 255 162 q 350 116 288 117 l 423 116 q 496 134 473 116 q 517 170 514 149 q 519 212 519 175 l 519 926 l 745 926 l 745 803 l 672 803 m 355 1009 l 262 1009 l 351 1158 l 443 1158 l 355 1009 m 493 1009 l 401 1009 l 490 1158 l 582 1158 l 493 1009 z "},"û":{"ha":685,"x_min":37,"x_max":657,"o":"m 657 116 l 657 0 l 272 0 q 111 179 106 -3 l 111 490 l 37 490 l 37 606 l 252 606 l 252 116 l 444 116 l 444 490 l 371 490 l 371 606 l 585 606 l 585 116 l 657 116 m 311 704 l 218 704 l 307 852 l 399 852 l 311 704 m 449 704 l 357 704 l 446 852 l 538 852 l 449 704 z "},"Ý":{"ha":770,"x_min":31,"x_max":743,"o":"m 541 0 l 243 0 l 243 123 l 319 123 l 319 414 l 103 803 l 31 803 l 31 926 l 203 926 l 391 543 l 576 926 l 743 926 l 743 803 l 673 803 l 467 414 l 467 123 l 541 123 l 541 0 m 425 1009 l 332 1009 l 420 1158 l 513 1158 l 425 1009 z "},"ý":{"ha":641,"x_min":23,"x_max":613,"o":"m 538 490 l 230 -250 l 92 -250 l 248 124 l 92 490 l 23 490 l 23 606 l 190 606 l 316 295 l 444 606 l 613 606 l 613 490 l 538 490 m 358 704 l 265 704 l 354 852 l 446 852 l 358 704 z "},"¯":{"ha":679,"x_min":30,"x_max":637,"o":"m 637 0 l 30 0 l 30 123 l 456 803 l 170 803 l 170 643 l 30 643 l 30 926 l 625 926 l 625 808 l 196 123 l 495 123 l 495 288 l 637 288 l 637 0 m 335 1133 q 378 1115 360 1133 q 396 1071 396 1096 q 378 1027 396 1046 q 334 1008 360 1008 q 290 1027 308 1008 q 271 1071 271 1045 q 290 1115 271 1097 q 335 1133 309 1133 z "},"£":{"ha":716,"x_min":72,"x_max":635,"o":"m 81 926 l 382 926 l 382 803 l 304 803 l 304 575 l 459 686 l 459 578 l 304 468 l 304 123 l 492 123 l 492 311 l 635 311 l 635 0 l 81 0 l 81 123 l 158 123 l 158 386 l 72 324 l 72 432 l 158 494 l 158 803 l 81 803 l 81 926 z "},"¿":{"ha":562,"x_min":35,"x_max":528,"o":"m 528 193 l 528 0 l 35 0 l 35 109 l 332 490 l 172 490 l 172 416 l 39 416 l 39 606 l 505 606 l 505 503 l 201 116 l 391 116 l 391 193 l 528 193 m 283 828 q 326 810 308 828 q 344 766 344 791 q 326 722 344 741 q 282 703 308 703 q 237 722 256 703 q 219 766 219 740 q 237 810 219 792 q 283 828 256 828 z "},"¡":{"ha":694,"x_min":202,"x_max":493,"o":"m 202 852 l 295 852 l 347 779 l 401 852 l 493 852 l 394 704 l 301 704 l 202 852 z "}," ":{"ha":416,"x_min":0,"x_max":0,"o":""},"¢":{"ha":694,"x_min":205,"x_max":490,"o":"m 205 852 l 269 852 q 347 776 281 776 q 426 852 414 776 l 490 852 q 465 768 486 802 q 347 705 427 705 q 229 768 267 705 q 205 852 208 802 z "},"¤":{"ha":731,"x_min":49,"x_max":682,"o":"m 216 154 l 146 58 l 49 129 l 133 245 q 128 298 128 271 l 128 630 q 136 677 128 652 l 49 796 l 146 867 l 225 759 q 264 763 248 763 l 467 763 q 506 759 486 763 l 585 867 l 682 796 l 597 678 q 603 637 603 657 l 603 289 q 598 245 603 267 l 682 129 l 585 58 l 516 154 q 470 147 494 147 l 271 147 q 216 154 244 147 m 458 263 l 458 647 l 271 647 l 271 263 l 458 263 z "},"¦":{"ha":694,"x_min":273,"x_max":421,"o":"m 273 926 l 421 926 l 421 466 l 273 466 l 273 926 m 273 229 l 421 229 l 421 -231 l 273 -231 l 273 229 z "},"ª":{"ha":686,"x_min":69,"x_max":635,"o":"m 392 0 l 392 -59 l 420 -59 q 458 -67 450 -59 q 467 -105 467 -76 l 467 -183 q 458 -221 467 -212 q 420 -229 450 -229 l 253 -229 l 253 -168 l 333 -168 l 333 -104 l 291 -104 l 291 0 l 69 0 l 69 264 l 210 264 l 210 123 l 401 123 q 467 144 448 123 q 485 214 485 164 l 485 298 q 481 357 485 345 q 437 395 472 388 q 378 397 428 397 l 268 397 q 123 448 172 399 q 69 594 70 500 l 69 734 q 122 876 69 819 q 185 916 153 907 q 272 926 216 926 l 616 926 l 616 670 l 473 670 l 473 803 l 306 803 q 252 795 265 803 q 225 767 233 785 q 218 713 218 748 l 218 631 q 224 575 218 588 q 253 547 235 555 q 306 538 272 538 l 453 538 q 587 484 536 538 q 628 415 620 449 q 635 330 635 389 l 635 182 q 574 42 635 94 q 503 6 538 13 q 415 0 476 0 l 392 0 z "},"­":{"ha":264,"x_min":0,"x_max":264,"o":"m 264 288 l 0 288 l 0 363 l 264 363 l 264 288 z "},"±":{"ha":574,"x_min":56,"x_max":519,"o":"m 347 463 l 347 292 l 227 292 l 227 463 l 56 463 l 56 583 l 227 583 l 227 755 l 347 755 l 347 583 l 519 583 l 519 463 l 347 463 m 519 60 l 56 60 l 56 180 l 519 180 l 519 60 z "},"²":{"ha":694,"x_min":446,"x_max":661,"o":"m 530 0 l 631 0 l 580 -68 l 580 -153 l 661 -153 l 661 -215 l 492 -215 q 454 -207 463 -215 q 446 -169 446 -198 l 446 -118 q 458 -75 446 -93 q 484 -47 466 -64 l 530 0 z "},"´":{"ha":694,"x_min":292,"x_max":473,"o":"m 385 704 l 292 704 l 380 852 l 473 852 l 385 704 z "},"µ":{"ha":732,"x_min":60,"x_max":680,"o":"m 275 0 l 275 -250 l 134 -250 l 134 490 l 60 490 l 60 606 l 275 606 l 275 116 l 467 116 l 467 490 l 394 490 l 394 606 l 608 606 l 608 116 l 680 116 l 680 0 l 275 0 z "},"·":{"ha":258,"x_min":46,"x_max":212,"o":"m 131 399 q 191 371 166 399 q 212 316 212 348 q 184 254 212 279 q 130 233 161 233 q 68 260 92 233 q 46 317 46 284 q 74 378 46 352 q 131 399 97 399 z "},"¸":{"ha":694,"x_min":257,"x_max":471,"o":"m 397 -59 l 425 -59 q 463 -67 454 -59 q 471 -105 471 -76 l 471 -183 q 463 -221 471 -213 q 425 -229 454 -229 l 257 -229 l 257 -168 l 338 -168 l 338 -104 l 296 -104 l 296 0 l 397 0 l 397 -59 z "},"º":{"ha":582,"x_min":56,"x_max":526,"o":"m 340 -5 l 340 -59 l 369 -59 q 407 -67 398 -59 q 415 -105 415 -76 l 415 -183 q 407 -221 415 -212 q 369 -229 398 -229 l 201 -229 l 201 -168 l 281 -168 l 281 -104 l 239 -104 l 239 -5 l 56 -5 l 56 180 l 198 180 l 198 111 l 388 111 l 388 246 l 195 246 q 60 380 63 244 l 60 477 q 98 573 60 536 q 197 611 136 610 l 519 611 l 519 425 l 388 425 l 388 495 l 198 495 l 198 363 l 382 363 q 488 330 451 362 q 519 286 511 309 q 526 226 526 262 l 526 123 q 481 24 526 60 q 385 -5 447 -4 l 340 -5 z "},"½":{"ha":694,"x_min":222,"x_max":543,"o":"m 315 704 l 222 704 l 311 852 l 404 852 l 315 704 m 454 704 l 361 704 l 450 852 l 543 852 l 454 704 z "},"Â":{"ha":800,"x_min":23,"x_max":768,"o":"m 768 0 l 560 0 l 503 294 l 292 294 l 233 0 l 23 0 l 23 123 l 99 123 l 282 926 l 513 926 l 694 123 l 768 123 l 768 0 m 477 417 l 399 832 l 317 417 l 477 417 m 541 1009 l 449 1009 l 396 1083 l 343 1009 l 250 1009 l 349 1158 l 442 1158 l 541 1009 z "},"Ã":{"ha":800,"x_min":23,"x_max":768,"o":"m 768 0 l 560 0 l 503 294 l 292 294 l 233 0 l 23 0 l 23 123 l 99 123 l 282 926 l 513 926 l 694 123 l 768 123 l 768 0 m 477 417 l 399 832 l 317 417 l 477 417 m 254 1158 l 317 1158 q 396 1081 330 1081 q 475 1158 462 1081 l 538 1158 q 514 1073 535 1107 q 396 1010 475 1010 q 277 1073 316 1010 q 254 1158 256 1107 z "},"Ç":{"ha":686,"x_min":56,"x_max":607,"o":"m 393 0 l 393 -59 l 421 -59 q 458 -67 450 -59 q 467 -105 468 -77 l 467 -183 q 458 -221 467 -212 q 421 -229 450 -229 l 253 -229 l 253 -168 l 334 -168 l 334 -104 l 292 -104 l 292 0 l 234 0 q 99 59 150 1 q 56 189 56 111 l 56 738 q 102 870 56 817 q 245 926 149 924 l 595 926 l 595 637 l 454 637 l 454 803 l 302 803 q 225 786 245 802 q 204 722 204 768 l 204 208 q 219 144 205 164 q 245 126 230 130 q 286 123 256 123 l 466 123 l 466 290 l 607 290 l 607 0 l 393 0 z "},"Ë":{"ha":706,"x_min":33,"x_max":656,"o":"m 656 0 l 33 0 l 33 123 l 109 123 l 109 803 l 33 803 l 33 926 l 647 926 l 647 643 l 508 643 l 508 803 l 258 803 l 258 536 l 532 536 l 532 410 l 258 410 l 258 123 l 515 123 l 515 294 l 656 294 l 656 0 m 248 1133 q 291 1115 273 1133 q 309 1071 309 1096 q 291 1027 309 1046 q 248 1008 273 1008 q 203 1027 221 1008 q 184 1071 184 1045 q 203 1115 184 1097 q 248 1133 222 1133 m 443 1133 q 486 1115 468 1133 q 504 1071 504 1096 q 486 1027 504 1046 q 442 1008 468 1008 q 397 1027 416 1008 q 379 1071 379 1045 q 397 1115 379 1097 q 443 1133 416 1133 z "},"Î":{"ha":389,"x_min":46,"x_max":343,"o":"m 343 0 l 46 0 l 46 123 l 121 123 l 121 803 l 46 803 l 46 926 l 343 926 l 343 803 l 269 803 l 269 123 l 343 123 l 343 0 m 340 1009 l 248 1009 l 195 1083 l 142 1009 l 49 1009 l 148 1158 l 241 1158 l 340 1009 z "},"×":{"ha":574,"x_min":64,"x_max":509,"o":"m 372 463 l 509 326 l 425 240 l 287 378 l 149 240 l 64 326 l 202 463 l 64 600 l 149 686 l 287 548 l 425 686 l 509 600 l 372 463 z "},"Þ":{"ha":756,"x_min":30,"x_max":718,"o":"m 524 0 l 221 0 l 221 123 l 302 123 l 302 803 l 170 803 l 170 669 l 30 669 l 30 926 l 718 926 l 718 669 l 581 669 l 581 803 l 449 803 l 449 123 l 524 123 l 524 0 m 336 -46 l 428 -46 l 357 -239 l 264 -239 l 336 -46 z "},"â":{"ha":623,"x_min":51,"x_max":595,"o":"m 595 0 l 182 0 q 126 13 155 0 q 81 47 98 26 q 51 137 51 83 l 51 205 q 104 316 52 279 q 152 337 128 333 q 217 342 174 341 l 387 344 l 387 495 l 191 495 l 191 406 l 59 406 l 59 479 q 94 572 59 535 q 141 603 117 595 q 203 611 165 611 l 382 611 q 490 569 452 610 q 523 469 522 532 l 523 117 l 595 117 l 595 0 m 388 235 l 192 235 l 192 110 l 388 110 l 388 235 m 457 704 l 365 704 l 312 779 l 259 704 l 166 704 l 265 852 l 358 852 l 457 704 z "},"ã":{"ha":623,"x_min":51,"x_max":595,"o":"m 595 0 l 182 0 q 126 13 155 0 q 81 47 98 26 q 51 137 51 83 l 51 205 q 104 316 52 279 q 152 337 128 333 q 217 342 174 341 l 387 344 l 387 495 l 191 495 l 191 406 l 59 406 l 59 479 q 94 572 59 535 q 141 603 117 595 q 203 611 165 611 l 382 611 q 490 569 452 610 q 523 469 522 532 l 523 117 l 595 117 l 595 0 m 388 235 l 192 235 l 192 110 l 388 110 l 388 235 m 170 852 l 233 852 q 312 776 245 776 q 391 852 378 776 l 454 852 q 430 768 451 802 q 312 705 391 705 q 193 768 232 705 q 170 852 172 802 z "},"ç":{"ha":553,"x_min":56,"x_max":503,"o":"m 347 0 l 347 -59 l 376 -59 q 414 -67 406 -59 q 422 -105 422 -76 l 422 -183 q 414 -221 422 -213 q 376 -229 406 -229 l 208 -229 l 208 -168 l 289 -168 l 289 -104 l 246 -104 l 246 0 l 198 0 q 92 45 130 1 q 60 153 61 81 l 60 448 q 198 606 56 605 l 503 606 l 503 393 l 370 393 l 370 490 l 198 490 l 198 116 l 370 116 l 370 218 l 503 218 l 503 0 l 347 0 z "},"ë":{"ha":578,"x_min":56,"x_max":522,"o":"m 389 198 l 522 198 l 522 134 q 486 33 522 70 q 389 -5 450 -5 l 199 -5 q 94 33 132 -4 q 61 85 68 56 q 56 139 56 104 l 56 472 q 95 576 56 538 q 203 611 132 610 l 389 611 q 489 570 450 611 q 522 465 522 534 l 522 269 l 191 269 l 191 111 l 389 111 l 389 198 m 389 369 l 389 505 l 191 505 l 191 369 l 389 369 m 193 828 q 236 810 218 828 q 254 766 254 791 q 236 722 254 741 q 193 703 218 703 q 148 722 166 703 q 130 766 130 740 q 148 810 130 792 q 193 828 167 828 m 388 828 q 431 810 413 828 q 449 766 449 791 q 431 722 449 741 q 387 703 413 703 q 342 722 361 703 q 324 766 324 740 q 342 810 324 792 q 388 828 361 828 z "},"î":{"ha":351,"x_min":30,"x_max":323,"o":"m 323 0 l 37 0 l 37 116 l 111 116 l 111 490 l 37 490 l 37 606 l 252 606 l 252 116 l 323 116 l 323 0 m 321 704 l 229 704 l 176 779 l 123 704 l 30 704 l 129 852 l 222 852 l 321 704 z "},"þ":{"ha":366,"x_min":23,"x_max":330,"o":"m 330 0 l 225 0 q 127 34 159 0 q 95 138 95 68 l 95 490 l 23 490 l 23 606 l 95 606 l 95 795 l 235 795 l 235 606 l 328 606 l 328 490 l 235 490 l 235 116 l 330 116 l 330 0 m 166 -46 l 258 -46 l 188 -239 l 95 -239 l 166 -46 z "},"ÿ":{"ha":694,"x_min":285,"x_max":410,"o":"m 349 828 q 391 810 374 828 q 410 766 410 791 q 391 722 410 741 q 348 703 374 703 q 303 722 321 703 q 285 766 285 740 q 303 810 285 792 q 349 828 322 828 z "},"‡":{"ha":618,"x_min":46,"x_max":572,"o":"m 244 593 l 46 593 l 46 718 l 244 718 l 244 926 l 373 926 l 373 718 l 572 718 l 572 593 l 373 593 l 373 333 l 572 333 l 572 208 l 373 208 l 373 -51 l 244 -51 l 244 208 l 46 208 l 46 333 l 244 333 l 244 593 z "},"‰":{"ha":1520,"x_min":46,"x_max":1474,"o":"m 429 820 l 429 553 q 399 462 429 494 q 313 429 368 429 l 162 429 q 78 459 108 430 q 46 544 47 490 l 46 829 q 77 907 47 880 q 162 938 109 938 l 308 938 q 429 820 428 936 m 313 837 l 162 837 l 162 528 l 313 528 l 313 837 m 218 0 l 140 0 l 858 926 l 937 926 l 218 0 m 1029 394 l 1029 119 q 1019 55 1029 73 q 978 13 1003 26 q 913 0 954 0 l 764 0 q 677 30 707 1 q 649 111 650 58 l 649 394 q 680 474 650 444 q 756 505 710 505 l 913 505 q 998 479 967 505 q 1024 439 1019 460 q 1029 394 1029 424 m 913 409 l 764 409 l 764 94 l 913 94 l 913 409 m 1474 394 l 1474 119 q 1463 55 1473 73 q 1423 13 1449 26 q 1358 0 1398 0 l 1208 0 q 1122 30 1152 1 q 1094 111 1095 58 l 1094 394 q 1124 474 1095 444 q 1201 505 1155 505 l 1358 505 q 1442 479 1412 505 q 1469 439 1463 460 q 1474 394 1474 424 m 1358 409 l 1208 409 l 1208 94 l 1358 94 l 1358 409 z "}}}
